<?xml version="1.0" encoding="UTF-8"?>
<svg version="1.1" xmlns="http://www.w3.org/2000/svg" width="1920" height="1536">
<path d="M0 0 C633.6 0 1267.2 0 1920 0 C1920 506.88 1920 1013.76 1920 1536 C1286.4 1536 652.8 1536 0 1536 C0 1029.12 0 522.24 0 0 Z " fill="#000000" transform="translate(0,0)"/>
<path d="M0 0 C633.6 0 1267.2 0 1920 0 C1920 228.36 1920 456.72 1920 692 C1894.59 692 1869.18 692 1843 692 C1843 719.39 1843 746.78 1843 775 C1827.16 775 1811.32 775 1795 775 C1795 725.17 1795 675.34 1795 624 C1774.21 624 1753.42 624 1732 624 C1732 664.59 1732 705.18 1732 747 C1715.83 747 1699.66 747 1683 747 C1683 742.71 1683 738.42 1683 734 C1675.41 734 1667.82 734 1660 734 C1660 712.88 1660 691.76 1660 670 C1642.84 670 1625.68 670 1608 670 C1608 685.18 1608 700.36 1608 716 C1589.85 716 1571.7 716 1553 716 C1553 742.73 1553 769.46 1553 797 C1542.44 796.67 1531.88 796.34 1521 796 C1521 727.69 1521 659.38 1521 589 C1489.98 589 1458.96 589 1427 589 C1426.67 556.33 1426.34 523.66 1426 490 C1420.06 489.67 1414.12 489.34 1408 489 C1408 474.81 1408 460.62 1408 446 C1402.39 446 1396.78 446 1391 446 C1391.00636475 444.62859863 1391.01272949 443.25719727 1391.01928711 441.84423828 C1391.03380087 436.7186371 1391.00222838 431.59414599 1390.95727539 426.46875 C1390.94419791 424.25752555 1390.94334395 422.04619161 1390.95532227 419.83496094 C1391.62403276 404.26558994 1391.62403276 404.26558994 1384.88745117 390.89648438 C1384.26459229 390.27064453 1383.6417334 389.64480469 1383 389 C1381.98701821 387.60668769 1381.00029698 386.19384094 1380.04296875 384.76171875 C1374.6202518 377.01297851 1369.07450357 369.40942729 1363.26171875 361.94921875 C1351.78690456 346.98637814 1351.78690456 346.98637814 1351.65625 341.62109375 C1351.62660156 340.78255859 1351.59695313 339.94402344 1351.56640625 339.08007812 C1351.52203732 337.31445559 1351.47776692 335.54883057 1351.43359375 333.78320312 C1351.40394531 332.94595703 1351.37429688 332.10871094 1351.34375 331.24609375 C1351.32505859 330.47966553 1351.30636719 329.7132373 1351.28710938 328.92358398 C1351.159618 326.76296806 1351.159618 326.76296806 1349 325 C1348.69390323 322.2057738 1348.62135406 319.43804084 1348.5390625 316.62890625 C1348.36117188 315.76136719 1348.18328125 314.89382813 1348 314 C1347.34523682 313.65026123 1346.69047363 313.30052246 1346.01586914 312.94018555 C1342.67261018 309.72244557 1343.30114818 305.78469715 1343.20703125 301.328125 C1343.15296616 299.827407 1343.15296616 299.827407 1343.09780884 298.29637146 C1342.98308169 294.94789856 1342.89741398 291.59935218 1342.8125 288.25 C1342.73884194 285.88383498 1342.66403037 283.51770563 1342.58813477 281.15161133 C1341.8602548 257.38101282 1341.54250749 233.59917345 1341.21875 209.8203125 C1341.04251214 196.89858361 1340.77768406 183.98090298 1340.4375 171.0625 C1340.40400955 169.78770279 1340.40400955 169.78770279 1340.36984253 168.4871521 C1340.25084264 163.99131084 1340.12774166 159.4956027 1340 155 C1339.97494385 156.30219482 1339.9498877 157.60438965 1339.92407227 158.94604492 C1339.08463966 202.26106854 1339.08463966 202.26106854 1338.5 216.9375 C1337.82334702 234.07098895 1337.64168796 251.21908603 1337.39257812 268.36303711 C1337.30587192 274.15659894 1337.19883244 279.94939096 1337.07080078 285.7421875 C1337.02405515 287.89313112 1336.98196936 290.04418167 1336.94482422 292.1953125 C1336.88954508 295.13114555 1336.80834053 298.06504012 1336.71875 301 C1336.70654419 301.86044922 1336.69433838 302.72089844 1336.6817627 303.60742188 C1336.46218049 309.44705712 1336.46218049 309.44705712 1333.9909668 312.40356445 C1333.33394775 312.93038818 1332.67692871 313.45721191 1332 314 C1331.34720626 316.53919282 1331.34720626 316.53919282 1331.3125 319.1875 C1331.06944444 323.93055556 1331.06944444 323.93055556 1330 325 C1329.9763214 326.38801674 1330.01093333 327.77711432 1330.0703125 329.1640625 C1330.3064582 342.33683254 1328.1230073 349.3908212 1319.49316406 359.21728516 C1317.03499827 362.15213254 1315.00624414 365.3473027 1312.9375 368.5625 C1301.48142874 386.01828334 1301.48142874 386.01828334 1295.39892578 392.97485352 C1291.94951587 397.83752486 1292.27148257 402.84307231 1292.29296875 408.62109375 C1292.27784744 409.72099136 1292.26272614 410.82088898 1292.24714661 411.95411682 C1292.20434179 415.44878762 1292.19543805 418.9425934 1292.1875 422.4375 C1292.16435026 424.81447601 1292.13898395 427.19143153 1292.11132812 429.56835938 C1292.04854623 435.37898249 1292.01615468 441.18906774 1292 447 C1286.06 447 1280.12 447 1274 447 C1274 461.19 1274 475.38 1274 490 C1268.06 490 1262.12 490 1256 490 C1256 525.64 1256 561.28 1256 598 C1252.7 598 1249.4 598 1246 598 C1246 652.12 1246 706.24 1246 762 C1243.36 762 1240.72 762 1238 762 C1238 754.74 1238 747.48 1238 740 C1223.81 740 1209.62 740 1195 740 C1195 673.67 1195 607.34 1195 539 C1188.73 539 1182.46 539 1176 539 C1176 510.29 1176 481.58 1176 452 C1171.71 452 1167.42 452 1163 452 C1163 434.84 1163 417.68 1163 400 C1162.01 399.67 1161.02 399.34 1160 399 C1158.54092979 397.38840371 1157.15457379 395.71025332 1155.8125 394 C1149.09153841 385.37667994 1149.09153841 385.37667994 1141.42289639 377.62076283 C1138.94403515 374.79719382 1139.43669203 371.05049799 1139.34594727 367.45385742 C1139.31350953 366.6072288 1139.2810718 365.76060019 1139.2476511 364.88831615 C1139.15071067 362.25913507 1139.0739115 359.62991845 1139 357 C1138.94899138 355.46731056 1138.89725773 353.93464502 1138.84469604 352.40200806 C1138.69520005 347.84796135 1138.57863439 343.29333711 1138.46484375 338.73828125 C1138.42165127 337.08391253 1138.37823531 335.42954963 1138.33460999 333.77519226 C1138.22226902 329.49292392 1138.11289214 325.21058524 1138.00421143 320.92822266 C1137.89202824 316.52957424 1137.7769329 312.13100202 1137.66210938 307.73242188 C1137.43861503 299.15501842 1137.21826348 290.57753815 1137 282 C1136.97938507 282.58769165 1136.95877014 283.1753833 1136.93753052 283.78088379 C1136.45299951 297.55684985 1135.94675111 311.33181594 1135.41273499 325.10595703 C1135.15204308 331.86595264 1134.90986937 338.62601709 1134.69354248 345.38757324 C1134.57145147 349.07206383 1134.43024015 352.75563021 1134.28338623 356.43920898 C1134.21983875 358.13634325 1134.16460217 359.83381058 1134.11798096 361.53149414 C1134.0523861 363.87658332 1133.95752249 366.21875526 1133.85546875 368.5625 C1133.81059326 369.86316406 1133.76571777 371.16382813 1133.71948242 372.50390625 C1132.78520577 377.04372355 1131.27468543 378.77163833 1128 382 C1127.34 382 1126.68 382 1126 382 C1125.76152344 382.556875 1125.52304688 383.11375 1125.27734375 383.6875 C1123.71113111 386.52296753 1121.76526991 388.62722978 1119.5625 391 C1116.29566918 394.52881363 1116.29566918 394.52881363 1113.33984375 398.3125 C1112.67662109 399.1478125 1112.67662109 399.1478125 1112 400 C1111.34 400 1110.68 400 1110 400 C1110 416.83 1110 433.66 1110 451 C1105.71 451 1101.42 451 1097 451 C1097 480.04 1097 509.08 1097 539 C1091.39 539 1085.78 539 1080 539 C1080 606.65 1080 674.3 1080 744 C1068.45 744 1056.9 744 1045 744 C1045 692.85 1045 641.7 1045 589 C1020.91 589 996.82 589 972 589 C972 608.47 972 627.94 972 648 C951.54 648 931.08 648 910 648 C910 634.14 910 620.28 910 606 C902.08 606 894.16 606 886 606 C885.67 596.1 885.34 586.2 885 576 C883.03448534 585.82757328 883.40056758 595.98581056 883 606 C858.25 606 833.5 606 808 606 C808 644.61 808 683.22 808 723 C800.08 723 792.16 723 784 723 C784 692.64 784 662.28 784 631 C748.69 631 713.38 631 677 631 C677 582.82 677 534.64 677 485 C668.75 485 660.5 485 652 485 C652 472.46 652 459.92 652 447 C645.73 447 639.46 447 633 447 C633 441.06 633 435.12 633 429 C631.68 429 630.36 429 629 429 C628.34 406.23 627.68 383.46 627 360 C626.39199513 369.72807798 625.81371136 379.42128226 625.46484375 389.15625 C625.42186661 390.31000122 625.37888947 391.46375244 625.33460999 392.65246582 C625.20034941 396.26824369 625.06886793 399.88411601 624.9375 403.5 C624.84588876 405.98047561 624.7540933 408.46094443 624.66210938 410.94140625 C624.43928357 416.96086084 624.21872723 422.98039516 624 429 C622.68 429 621.36 429 620 429 C620 434.94 620 440.88 620 447 C613.73 447 607.46 447 601 447 C601 459.54 601 472.08 601 485 C592.75 485 584.5 485 576 485 C576 568.82 576 652.64 576 739 C562.8 739 549.6 739 536 739 C536 705.67 536 672.34 536 638 C522.47 638 508.94 638 495 638 C495 686.18 495 734.36 495 784 C488.73 784 482.46 784 476 784 C476 712.72 476 641.44 476 568 C446.3 568 416.6 568 386 568 C386 643.57 386 719.14 386 797 C378.08 797 370.16 797 362 797 C362 771.92 362 746.84 362 721 C350.45 721 338.9 721 327 721 C323 716 323 716 323 714 C322.34 714 321.68 714 321 714 C320.34 712.35 319.68 710.7 319 709 C297.22 709 275.44 709 253 709 C253 692.83 253 676.66 253 660 C246.4 660 239.8 660 233 660 C218.9375 645.9375 218.9375 645.9375 217.45263672 644.42944336 C216.08678875 643.08540305 214.64266411 641.8222559 213.1953125 640.56640625 C210.36143728 637.25349518 210.2132906 635.27022189 209.875 630.9375 C209.81062744 630.20305664 209.74625488 629.46861328 209.67993164 628.71191406 C209.52743139 626.93037876 209.38642072 625.14784301 209.25341797 623.36474609 C208.88264036 618.44176243 208.46424053 613.52294238 208.05090332 608.6033783 C207.71030938 604.54206972 207.37463698 600.48052248 207.05224609 596.41772461 C206.99020493 595.64591354 206.92816376 594.87410248 206.86424255 594.0789032 C206.74733386 592.6222894 206.63234816 591.16551944 206.51966858 589.70857239 C206.20035224 585.76184167 205.70947786 581.89549938 205 578 C203.24617258 588.39769112 201.7421961 598.55968888 201.9375 609.125 C202.04117076 615.90937629 201.938437 622.60981124 201.375 629.375 C201.32980225 630.15375488 201.28460449 630.93250977 201.23803711 631.73486328 C200.82872259 635.98074476 200.03464768 638.42328971 197.0390625 641.5390625 C194 644 194 644 192 644 C191.67 644.99 191.34 645.98 191 647 C190.34 647 189.68 647 189 647 C188.6596875 647.86625 188.6596875 647.86625 188.3125 648.75 C186.65238361 651.59591381 184.60812043 652.99841921 182 655 C181.32195312 655.86109375 180.64390625 656.7221875 179.9453125 657.609375 C175.74913872 661.01528793 172.41598932 660.56593162 167.1875 660.3125 C165.86202148 660.27866211 165.86202148 660.27866211 164.50976562 660.24414062 C162.3391109 660.18547428 160.1693331 660.09579979 158 660 C158.00138269 661.39785563 158.00138269 661.39785563 158.00279331 662.82395077 C158.02496047 685.46483024 158.04141034 708.10570831 158.05181217 730.74659634 C158.05697569 741.69540733 158.06401946 752.64421117 158.07543945 763.59301758 C158.08538458 773.13232731 158.09185302 782.67163185 158.09408849 792.21094662 C158.09539589 797.26524023 158.09848358 802.31951903 158.10573006 807.37380791 C158.11248757 812.12528784 158.11461751 816.87674677 158.11310768 821.62823105 C158.11338413 823.37743684 158.11539084 825.1266433 158.11920547 826.87584496 C158.12413854 829.25335148 158.12299974 831.63077736 158.12025452 834.00828552 C158.12462378 835.06030872 158.12462378 835.06030872 158.12908131 836.13358492 C158.11412121 840.88587879 158.11412121 840.88587879 157 842 C154.27275721 842.10099488 151.57137477 842.13970529 148.84375 842.1328125 C147.61754944 842.13424759 147.61754944 842.13424759 146.36657715 842.13571167 C144.63484622 842.13639345 142.90311276 842.13453929 141.17138672 842.13037109 C138.51133518 842.12502279 135.8514525 842.13031612 133.19140625 842.13671875 C131.51302046 842.13605797 129.83463477 842.1347768 128.15625 842.1328125 C127.35521851 842.13483673 126.55418701 842.13686096 125.72888184 842.13894653 C120.11495079 842.11495079 120.11495079 842.11495079 119 841 C118.90383193 839.31708304 118.87812309 837.63010439 118.87974548 835.94444275 C118.87768349 834.30162071 118.87768349 834.30162071 118.87557983 832.62561035 C118.88097275 830.80760925 118.88097275 830.80760925 118.88647461 828.95288086 C118.88632858 827.68477066 118.88618256 826.41666046 118.8860321 825.11012268 C118.88574415 821.62267578 118.89164055 818.13526299 118.89860606 814.64782405 C118.90483993 811.00696277 118.90544342 807.36610078 118.90663147 803.72523499 C118.90974469 796.82623028 118.91795795 789.92724135 118.92798096 783.0282436 C118.93914239 775.17589315 118.94465262 767.32354197 118.94967639 759.47118556 C118.96014057 743.31411301 118.97848594 727.15706219 119 711 C100.85 711 82.7 711 64 711 C64 681.96 64 652.92 64 623 C42.88 623 21.76 623 0 623 C0 417.41 0 211.82 0 0 Z " fill="#FCFCFC" transform="translate(0,0)"/>
<path d="M0 0 C0.33 0 0.66 0 1 0 C1.03092239 1.81542549 1.03092239 1.81542549 1.06246948 3.66752625 C2.07823597 69.67912469 2.07823597 69.67912469 3.77154541 135.67520142 C3.84020163 137.84018122 3.90223453 140.00538178 3.9574585 142.17074585 C4.03320593 145.06148805 4.13324579 147.95019116 4.2421875 150.83984375 C4.25894531 151.64713928 4.27570313 152.45443481 4.29296875 153.28619385 C4.44565284 157.58262211 4.44565284 157.58262211 7.01367188 160.84570312 C7.66916016 161.22662109 8.32464844 161.60753906 9 162 C9.5390625 164.62890625 9.5390625 164.62890625 9.625 167.5625 C9.57912954 171.78318167 9.57912954 171.78318167 12 175 C12.03356924 177.07290055 12.05741866 179.14663435 12.02075195 181.21948242 C11.9311895 192.14083342 14.48284591 198.08493772 21.50585938 206.23144531 C24.17610494 209.39210853 26.59795912 212.74081326 29.0625 216.0625 C29.56845703 216.73385986 30.07441406 217.40521973 30.59570312 218.09692383 C34.45806614 223.22203036 38.15195539 228.44218614 41.76953125 233.7421875 C43.76604953 236.88679917 43.76604953 236.88679917 45.80249023 238.75830078 C53.90128581 247.63187056 51.74587367 259.92380433 51.4375 271.125 C51.40234681 273.34370086 51.37041488 275.56245523 51.34179688 277.78125 C51.26507767 283.1888319 51.14450775 288.59382221 51 294 C56.61 294 62.22 294 68 294 C68 308.19 68 322.38 68 337 C73.94 337 79.88 337 86 337 C87.93224465 338.93224465 87.12018438 341.83610389 87.12442017 344.40708923 C87.12082489 345.32921707 87.11722961 346.25134491 87.11352539 347.20141602 C87.11367142 348.16716553 87.11381744 349.13291504 87.1139679 350.12792969 C87.11326834 353.33661099 87.10547397 356.54523503 87.09765625 359.75390625 C87.09579222 361.97208118 87.09436825 364.19025652 87.09336853 366.40843201 C87.08954216 372.25940071 87.07971086 378.11034477 87.06866455 383.96130371 C87.05665902 390.97467286 87.05204876 397.98805022 87.04621124 405.0014267 C87.03649916 415.66763496 87.01734343 426.3337891 87 437 C118.02 437 149.04 437 181 437 C181 505.31 181 573.62 181 644 C191.23 644 201.46 644 212 644 C212.33 617.6 212.66 591.2 213 564 C231.15 564 249.3 564 268 564 C268 548.82 268 533.64 268 518 C285.16 518 302.32 518 320 518 C320 539.12 320 560.24 320 582 C327.59 582 335.18 582 343 582 C343 586.29 343 590.58 343 595 C359.17 595 375.34 595 392 595 C392 554.41 392 513.82 392 472 C412.79 472 433.58 472 455 472 C455 521.83 455 571.66 455 623 C470.84 623 486.68 623 503 623 C503 595.61 503 568.22 503 540 C528.41 540 553.82 540 580 540 C580 625.14 580 710.28 580 798 C550.96 798 521.92 798 492 798 C492 833.64 492 869.28 492 906 C483.42 906 474.84 906 466 906 C466 944.94 466 983.88 466 1024 C449.5 1024 433 1024 416 1024 C416 974.83 416 925.66 416 875 C386.96 875 357.92 875 328 875 C328 902.06 328 929.12 328 957 C292.03 957 256.06 957 219 957 C219 964.92 219 972.84 219 981 C211.41 981 203.82 981 196 981 C196 956.25 196 931.5 196 906 C165.97 906 135.94 906 105 906 C105 922.83 105 939.66 105 957 C98.73 957 92.46 957 86 957 C86 852.72 86 748.44 86 641 C84.35 641 82.7 641 81 641 C81 626.15 81 611.3 81 596 C78.36 596 75.72 596 73 596 C72.855625 594.948125 72.71125 593.89625 72.5625 592.8125 C72.12473034 589.84539451 71.62195134 586.93205634 71 584 C70.01 583.67 69.02 583.34 68 583 C67.34 552.97 66.68 522.94 66 492 C65.37396072 504.52078569 64.82726606 516.96187966 64.68359375 529.484375 C64.66292222 531.04763202 64.64192399 532.61088476 64.62062073 534.1741333 C64.56644892 538.21145053 64.51659528 542.24880885 64.46777344 546.28619385 C64.41677231 550.4369251 64.36150448 554.58759957 64.30664062 558.73828125 C64.2003502 566.82547228 64.09864074 574.91271205 64 583 C62.68 583.33 61.36 583.66 60 584 C59.855625 585.2375 59.71125 586.475 59.5625 587.75 C59.21311498 590.56504499 58.79620634 593.2701497 58 596 C55.69 596 53.38 596 51 596 C51 610.85 51 625.7 51 641 C49.35 641 47.7 641 46 641 C46 655.19 46 669.38 46 684 C31.81 684 17.62 684 3 684 C3 669.81 3 655.62 3 641 C1.35 641 -0.3 641 -2 641 C-2 626.15 -2 611.3 -2 596 C-4.64 596 -7.28 596 -10 596 C-10.66 592.04 -11.32 588.08 -12 584 C-12.99 584 -13.98 584 -15 584 C-15.03425331 582.56299995 -15.03425331 582.56299995 -15.06919861 581.0969696 C-15.28481186 572.07678379 -15.50526871 563.0567277 -15.73049068 554.03677654 C-15.84612818 549.39932888 -15.96004783 544.76185217 -16.07006836 540.12426758 C-16.17627038 535.65028762 -16.28694981 531.17643895 -16.40075874 526.70264626 C-16.4434271 524.99422948 -16.48447112 523.28577135 -16.5238781 521.57727623 C-16.57926969 519.1877001 -16.6403904 516.79833508 -16.70288086 514.40893555 C-16.71798706 513.69971451 -16.73309326 512.99049347 -16.74865723 512.25978088 C-16.83261258 509.25257683 -17.04135394 506.87593817 -18 504 C-18.01030746 504.6504982 -18.02061493 505.3009964 -18.03123474 505.97120667 C-18.14115116 512.86832108 -18.25554855 519.76535175 -18.37231445 526.66235352 C-18.41508294 529.22125461 -18.45678567 531.78017378 -18.49731445 534.33911133 C-18.75531652 550.57413057 -19.18262005 566.78288681 -20 583 C-20.99 583.33 -21.98 583.66 -23 584 C-23.66 587.96 -24.32 591.92 -25 596 C-27.31 596 -29.62 596 -32 596 C-32 610.85 -32 625.7 -32 641 C-33.65 641 -35.3 641 -37 641 C-37 722.84 -37 804.68 -37 889 C-47.56 889 -58.12 889 -69 889 C-69 840.16 -69 791.32 -69 741 C-104.97 741 -140.94 741 -178 741 C-178 752.55 -178 764.1 -178 776 C-184.93 776 -191.86 776 -199 776 C-199 734.09 -199 692.18 -199 649 C-231.34 649 -263.68 649 -297 649 C-297 674.41 -297 699.82 -297 726 C-315.15 726 -333.3 726 -352 726 C-352 703.56 -352 681.12 -352 658 C-362.89 658 -373.78 658 -385 658 C-385 632.26 -385 606.52 -385 580 C-388.3 580 -391.6 580 -395 580 C-395 583.3 -395 586.6 -395 590 C-398.96 590 -402.92 590 -407 590 C-407 581.75 -407 573.5 -407 565 C-412.28 565 -417.56 565 -423 565 C-423 558.07 -423 551.14 -423 544 C-428.94 544 -434.88 544 -441 544 C-441 535.75 -441 527.5 -441 519 C-443.31 519 -445.62 519 -448 519 C-450.28571429 510.57142857 -450.28571429 510.57142857 -450 506 C-450.99 506 -451.98 506 -453 506 C-453.8068229 488.6490161 -454.09544233 471.37050477 -454 454 C-446.08 454 -438.16 454 -430 454 C-430 467.86 -430 481.72 -430 496 C-409.54 496 -389.08 496 -368 496 C-368 476.53 -368 457.06 -368 437 C-343.91 437 -319.82 437 -295 437 C-295 488.15 -295 539.3 -295 592 C-283.45 592 -271.9 592 -260 592 C-260 524.35 -260 456.7 -260 387 C-254.39 387 -248.78 387 -243 387 C-243 357.96 -243 328.92 -243 299 C-238.71 299 -234.42 299 -230 299 C-230.03927612 296.72186401 -230.03927612 296.72186401 -230.0793457 294.39770508 C-230.16987895 288.76032252 -230.2272618 283.12300415 -230.2746582 277.48510742 C-230.29979496 275.04554436 -230.33390946 272.60605655 -230.37719727 270.16674805 C-230.43788229 266.65915354 -230.466219 263.1525551 -230.48828125 259.64453125 C-230.51408768 258.55477493 -230.5398941 257.46501862 -230.56648254 256.34223938 C-230.56929749 248.73434617 -230.56929749 248.73434617 -227.63452148 244.94873047 C-226.76512939 244.30564941 -225.8957373 243.66256836 -225 243 C-223.23791033 241.11539818 -221.48786238 239.21946575 -219.75 237.3125 C-218.87859375 236.35988281 -218.0071875 235.40726563 -217.109375 234.42578125 C-214.99506137 232.1979846 -214.99506137 232.1979846 -214 230 C-213.34 230 -212.68 230 -212 230 C-211.71125 229.38125 -211.4225 228.7625 -211.125 228.125 C-210 226 -210 226 -208 224 C-207.59711171 221.42508842 -207.59711171 221.42508842 -207.51342773 218.37402344 C-207.45674423 217.18967712 -207.40006073 216.00533081 -207.34165955 214.78509521 C-207.28949783 213.48960754 -207.23733612 212.19411987 -207.18359375 210.859375 C-207.12236591 209.49917126 -207.06034438 208.13900305 -206.99757385 206.77886963 C-206.83327659 203.16736936 -206.68071111 199.55545977 -206.53027344 195.94335938 C-206.40967924 193.09225867 -206.28106458 190.24155121 -206.15183067 187.39083099 C-205.60659304 175.35214303 -205.07291389 163.31481397 -204.75830078 151.26757812 C-204.71969791 149.86541617 -204.68104829 148.4632555 -204.64234924 147.06109619 C-204.56979142 144.41597517 -204.51051702 141.77162942 -204.45811462 139.12591553 C-204.42690018 137.95288879 -204.39568573 136.77986206 -204.36352539 135.57128906 C-204.34125381 134.53973694 -204.31898224 133.50818481 -204.29603577 132.44537354 C-204 130 -204 130 -202 128 C-201.73622068 137.71133035 -201.47525869 147.42273145 -201.21769714 157.13422871 C-201.09796116 161.64575663 -200.97732702 166.15725647 -200.85449219 170.66870117 C-200.73554004 175.03884894 -200.61914034 179.40905849 -200.50436401 183.77931786 C-200.46059354 185.42991662 -200.41596939 187.08049301 -200.37039185 188.73104286 C-200.04648374 200.4901434 -199.94828827 212.23655634 -200 224 C-199.01 224.33 -198.02 224.66 -197 225 C-195.2734375 226.93359375 -195.2734375 226.93359375 -193.375 229.4375 C-186.48917693 238.43919599 -186.48917693 238.43919599 -178.39750671 246.31343079 C-176.47490171 248.63371045 -176.63771536 250.12548116 -176.65942383 253.11401367 C-176.65965042 254.15486618 -176.65987701 255.19571869 -176.66011047 256.26811218 C-176.67559433 257.39006485 -176.69107819 258.51201752 -176.70703125 259.66796875 C-176.71127609 260.81791824 -176.71552094 261.96786774 -176.71989441 263.15266418 C-176.73670811 266.83117941 -176.77436623 270.50914992 -176.8125 274.1875 C-176.82754331 276.67902856 -176.84123233 279.17056568 -176.85351562 281.66210938 C-176.8866206 287.77494997 -176.93842226 293.88738258 -177 300 C-172.71 300 -168.42 300 -164 300 C-164 328.71 -164 357.42 -164 387 C-157.73 387 -151.46 387 -145 387 C-145 453.33 -145 519.66 -145 588 C-130.81 588 -116.62 588 -102 588 C-102 595.26 -102 602.52 -102 610 C-99.36 610 -96.72 610 -94 610 C-94 555.88 -94 501.76 -94 446 C-90.7 446 -87.4 446 -84 446 C-84 410.36 -84 374.72 -84 338 C-78.06 338 -72.12 338 -66 338 C-66 323.81 -66 309.62 -66 295 C-60.06 295 -54.12 295 -48 295 C-48.05236816 293.55866699 -48.10473633 292.11733398 -48.15869141 290.63232422 C-48.34130354 285.22444096 -48.45506407 279.81682264 -48.54931641 274.40673828 C-48.59924503 272.07684329 -48.66721673 269.74725577 -48.75439453 267.41845703 C-49.62064396 243.66284041 -49.62064396 243.66284041 -40.48901367 233.6105957 C-39.66763916 232.74909912 -38.84626465 231.88760254 -38 231 C-36.86643568 229.45869464 -35.75493885 227.90031755 -34.6875 226.3125 C-34.14609375 225.53777344 -33.6046875 224.76304687 -33.046875 223.96484375 C-31.31945473 221.46272164 -29.6026926 218.95403341 -27.890625 216.44140625 C-27.040448 215.19460083 -27.040448 215.19460083 -26.1730957 213.92260742 C-25.04481582 212.26645317 -23.91825448 210.60912636 -22.79370117 208.95043945 C-22.26236572 208.17015381 -21.73103027 207.38986816 -21.18359375 206.5859375 C-20.66031494 205.81096924 -20.13703613 205.03600098 -19.59790039 204.23754883 C-18 202 -18 202 -16.29077148 200.01831055 C-11.61816377 194.55385316 -11.13359085 190.13440062 -11.1875 183.0625 C-11.16339292 181.17834122 -11.13622349 179.29421824 -11.10546875 177.41015625 C-11.10699951 176.58652588 -11.10853027 175.76289551 -11.11010742 174.91430664 C-11 173 -11 173 -10 172 C-9.79635438 169.51552343 -9.68089929 167.03340748 -9.57421875 164.54296875 C-9 162 -9 162 -7.0090332 160.40356445 C-4.01278806 156.8189207 -4.34575395 153.54720895 -4.28125 149 C-4.23925476 147.62424805 -4.23925476 147.62424805 -4.19641113 146.22070312 C-4.10949194 143.14726094 -4.05308449 140.07420246 -4 137 C-3.95223333 134.80207438 -3.90404663 132.60415784 -3.85546875 130.40625 C-3.73400861 124.5100916 -3.64012634 118.61378623 -3.55444336 112.7170105 C-3.05581995 78.67450311 -3.05581995 78.67450311 -2.375 61.84814453 C-2.07561659 54.13785225 -1.89622768 46.42945833 -1.75 38.71484375 C-1.72901245 37.62149216 -1.7080249 36.52814056 -1.68640137 35.4016571 C-1.58166327 29.88497141 -1.48324657 24.36825275 -1.39257812 18.85131836 C-1.35560607 16.82535556 -1.31850268 14.79939516 -1.28125 12.7734375 C-1.26771484 11.83116806 -1.25417969 10.88889862 -1.24023438 9.91807556 C-1.22347656 9.04969559 -1.20671875 8.18131561 -1.18945312 7.28662109 C-1.17692505 6.52803802 -1.16439697 5.76945496 -1.15148926 4.98788452 C-1 3 -1 3 0 0 Z " fill="#393939" transform="translate(1340,152)"/>
<path d="M0 0 C0.33 0 0.66 0 1 0 C2.10173932 7.37887598 2.3399253 14.7360463 2.5625 22.1875 C2.58367889 22.86554688 2.60485779 23.54359375 2.62667847 24.2421875 C3.16618455 41.82503025 3.0966261 59.41107711 3 77 C4.32 77 5.64 77 7 77 C7 82.94 7 88.88 7 95 C13.27 95 19.54 95 26 95 C26 107.54 26 120.08 26 133 C34.25 133 42.5 133 51 133 C51 181.18 51 229.36 51 279 C86.31 279 121.62 279 158 279 C158 309.36 158 339.72 158 371 C165.92 371 173.84 371 182 371 C182 332.39 182 293.78 182 254 C206.75 254 231.5 254 257 254 C257 245.75 257 237.5 257 229 C257.12988774 224.30316656 257.27242149 219.62746248 257.5 214.9375 C257.54769531 213.85791016 257.59539063 212.77832031 257.64453125 211.66601562 C257.75811378 209.11040865 257.87643311 206.55513984 258 204 C258.33 204 258.66 204 259 204 C259.79531165 217.34987408 260.12803877 230.62706162 260 244 C259.67 244 259.34 244 259 244 C257.80176866 264.66120596 256.68433818 285.31407025 256 306 C255.01 306 254.02 306 253 306 C252.93941406 306.60328125 252.87882813 307.2065625 252.81640625 307.828125 C252.73261719 308.62734375 252.64882813 309.4265625 252.5625 310.25 C252.48128906 311.03890625 252.40007813 311.8278125 252.31640625 312.640625 C252.02365007 314.82364639 251.57935581 316.8773182 251 319 C248.69 319 246.38 319 244 319 C244 327.25 244 335.5 244 344 C238.06 344 232.12 344 226 344 C226 350.93 226 357.86 226 365 C220.72 365 215.44 365 210 365 C210 373.25 210 381.5 210 390 C206.04 390 202.08 390 198 390 C198 386.7 198 383.4 198 380 C194.7 380 191.4 380 188 380 C188 437.42 188 494.84 188 554 C179.75 554 171.5 554 163 554 C163 569.18 163 584.36 163 600 C159.04 600 155.08 600 151 600 C151 539.94 151 479.88 151 418 C149.35 418 147.7 418 146 418 C146 404.14 146 390.28 146 376 C131.31734116 376.30118275 117.10255225 376.84664226 102.5625 378.875 C101.39887939 379.03645508 100.23525879 379.19791016 99.03637695 379.36425781 C92.270711 380.36284432 85.64289491 381.68336862 78.99560547 383.2902832 C75.86278389 384.03250915 72.71936229 384.68112754 69.5625 385.3125 C62.14127112 386.8788316 54.85474089 388.89169947 47.55102539 390.9309082 C46.64602295 391.18316162 45.74102051 391.43541504 44.80859375 391.6953125 C44.00220459 391.92234863 43.19581543 392.14938477 42.36499023 392.38330078 C39.93287035 393.01750485 37.46463875 393.50707225 35 394 C35 397.96 35 401.92 35 406 C29.06 406 23.12 406 17 406 C17 410.29 17 414.58 17 419 C15.68 419 14.36 419 13 419 C13 448.37 13 477.74 13 508 C8.05 508 3.1 508 -2 508 C-2 515.59 -2 523.18 -2 531 C-3.65 531 -5.3 531 -7 531 C-7 536.28 -7 541.56 -7 547 C-7.99 547 -8.98 547 -10 547 C-10 559.54 -10 572.08 -10 585 C-13.96 585 -17.92 585 -22 585 C-22 593.25 -22 601.5 -22 610 C-31.24 610 -40.48 610 -50 610 C-50 586.57 -50 563.14 -50 539 C-51.65 539 -53.3 539 -55 539 C-55 530.42 -55 521.84 -55 513 C-56.98 513 -58.96 513 -61 513 C-61 505.74 -61 498.48 -61 491 C-65.29 491 -69.58 491 -74 491 C-74 485.72 -74 480.44 -74 475 C-77.3 475 -80.6 475 -84 475 C-84.66 466.09 -85.32 457.18 -86 448 C-86.66 457.24 -87.32 466.48 -88 476 C-91.3 476 -94.6 476 -98 476 C-98 481.28 -98 486.56 -98 492 C-102.62 492 -107.24 492 -112 492 C-112 498.93 -112 505.86 -112 513 C-113.98 513 -115.96 513 -118 513 C-118 521.58 -118 530.16 -118 539 C-119.65 539 -121.3 539 -123 539 C-123 566.06 -123 593.12 -123 621 C-127.29 621 -131.58 621 -136 621 C-136 613.74 -136 606.48 -136 599 C-144.25 599 -152.5 599 -161 599 C-161.03738281 596.54046875 -161.07476562 594.0809375 -161.11328125 591.546875 C-161.15969627 589.12394083 -161.21085651 586.70114909 -161.26245117 584.27832031 C-161.29538998 582.61434833 -161.32351487 580.95027294 -161.34643555 579.28613281 C-161.64005996 558.52001462 -166.12700357 541.45246382 -181 526 C-181.86239037 525.43761124 -181.86239037 525.43761124 -182.74220276 524.86386108 C-185.83267001 522.75565457 -187.71592987 521.17310626 -188.61630249 517.45489502 C-188.81006552 514.29441951 -188.78693219 511.20385436 -188.68359375 508.0390625 C-188.67368912 506.89335785 -188.66378448 505.7476532 -188.65357971 504.56723022 C-188.61448675 500.91850187 -188.52666452 497.27281444 -188.4375 493.625 C-188.40238 491.14717895 -188.37044222 488.66931061 -188.34179688 486.19140625 C-188.26473955 480.12643777 -188.14398283 474.0637339 -188 468 C-191.96 468 -195.92 468 -200 468 C-200 453.15 -200 438.3 -200 423 C-202.31 423 -204.62 423 -207 423 C-209.28571429 414.57142857 -209.28571429 414.57142857 -209 410 C-209.99 410 -210.98 410 -212 410 C-212.02283554 409.20423553 -212.04567108 408.40847107 -212.06919861 407.58859253 C-212.28666886 400.02876476 -212.5070249 392.46902887 -212.73049068 384.90937614 C-212.84523277 381.02442531 -212.95892256 377.13945005 -213.07006836 373.25439453 C-213.17769988 369.49361483 -213.28827711 365.7329315 -213.40075874 361.97229385 C-213.44283007 360.54927659 -213.48390235 359.12622937 -213.5238781 357.7031517 C-213.78478831 348.44521864 -214.2636339 339.23281591 -215 330 C-216.02309057 356.6589336 -216.50886185 383.32690366 -217 410 C-217.99 410 -218.98 410 -220 410 C-220.12375 411.216875 -220.2475 412.43375 -220.375 413.6875 C-220.78891306 417.06479059 -221.54573451 419.89756695 -223 423 C-224.98 423 -226.96 423 -229 423 C-229 437.85 -229 452.7 -229 468 C-232.96 468 -236.92 468 -241 468 C-241 476.91 -241 485.82 -241 495 C-250.04258219 493.99526865 -259.02556183 492.4957397 -268 491 C-268 551.72 -268 612.44 -268 675 C-281.2 675 -294.4 675 -308 675 C-308 658.17 -308 641.34 -308 624 C-352.22 624 -396.44 624 -442 624 C-442 672.18 -442 720.36 -442 770 C-453.88 770 -465.76 770 -478 770 C-478 729.41 -478 688.82 -478 647 C-511.99 647 -545.98 647 -581 647 C-581 630.5 -581 614 -581 597 C-595.85 597 -610.7 597 -626 597 C-626 489.42 -626 381.84 -626 271 C-604.88 271 -583.76 271 -562 271 C-562 300.04 -562 329.08 -562 359 C-543.52 358.67 -525.04 358.34 -506 358 C-506 401.23 -506 444.46 -506 489 C-493.79 489 -481.58 489 -469 489 C-468.67 429.27 -468.34 369.54 -468 308 C-461.73 307.67 -455.46 307.34 -449 307 C-445.02083333 305.51041667 -445.02083333 305.51041667 -444.0625 303.125 C-442.62851465 300.2570293 -440.50768261 298.97032205 -438 297 C-437.071875 295.824375 -437.071875 295.824375 -436.125 294.625 C-434.26290023 292.32475911 -432.79072678 291.08190232 -430.45703125 289.3671875 C-427.00583609 286.42963775 -426.08994387 284.29474175 -425.67431641 279.83691406 C-425.61896729 278.6801416 -425.61896729 278.6801416 -425.5625 277.5 C-425.49724121 276.67467773 -425.43198242 275.84935547 -425.36474609 274.99902344 C-424.86747599 267.83887003 -425.03858716 260.69488525 -425.17797852 253.52490234 C-425.24509105 242.81147288 -423.1781166 232.45322181 -421 222 C-420.67 222 -420.34 222 -420 222 C-419.94180084 222.72361221 -419.88360168 223.44722443 -419.82363892 224.19276428 C-419.27212333 231.03418063 -418.71377253 237.87500898 -418.1478672 244.71524906 C-417.85721377 248.23134299 -417.56914563 251.74760782 -417.28710938 255.2644043 C-416.96225521 259.31365621 -416.62593602 263.36188641 -416.2890625 267.41015625 C-416.14049301 269.29179222 -416.14049301 269.29179222 -415.98892212 271.21144104 C-415.47862371 281.54340072 -415.47862371 281.54340072 -410.86328125 290.40625 C-410.02152344 291.0971875 -409.17976562 291.788125 -408.3125 292.5 C-406.98025391 293.63115234 -406.98025391 293.63115234 -405.62109375 294.78515625 C-404.32365234 295.88150391 -404.32365234 295.88150391 -403 297 C-401.60767213 298.29410368 -400.23015271 299.60451748 -398.875 300.9375 C-398.31554687 301.48277344 -397.75609375 302.02804687 -397.1796875 302.58984375 C-396 304 -396 304 -396 306 C-388.6993151 308.43356163 -380.68599609 307.6157002 -373 308 C-373 324.17 -373 340.34 -373 357 C-351.22 357 -329.44 357 -307 357 C-306.34 358.65 -305.68 360.3 -305 362 C-304.34 362 -303.68 362 -303 362 C-301.68 363.98 -300.36 365.96 -299 368 C-287.45 368.33 -275.9 368.66 -264 369 C-264 394.08 -264 419.16 -264 445 C-256.08 445 -248.16 445 -240 445 C-240 369.43 -240 293.86 -240 216 C-210.3 216 -180.6 216 -150 216 C-150 287.28 -150 358.56 -150 432 C-143.73 432 -137.46 432 -131 432 C-131 383.82 -131 335.64 -131 286 C-117.47 286 -103.94 286 -90 286 C-90 319.33 -90 352.66 -90 387 C-76.8 387 -63.6 387 -50 387 C-50 303.18 -50 219.36 -50 133 C-41.75 133 -33.5 133 -25 133 C-25 120.46 -25 107.92 -25 95 C-18.73 95 -12.46 95 -6 95 C-6 89.06 -6 83.12 -6 77 C-4.68 77 -3.36 77 -2 77 C-2.01160156 75.8241333 -2.02320313 74.6482666 -2.03515625 73.43676758 C-2.13781263 57.83566221 -1.59648782 42.27524804 -1 26.6875 C-0.90329167 24.0852996 -0.80693532 21.48308609 -0.7109375 18.88085938 C-0.4780043 12.58708315 -0.240771 6.29348101 0 0 Z " fill="#818181" transform="translate(626,352)"/>
<path d="M0 0 C0.33 0 0.66 0 1 0 C1 32.67 1 65.34 1 99 C32.02 99 63.04 99 95 99 C95 167.31 95 235.62 95 306 C105.23 306 115.46 306 126 306 C126.495 266.4 126.495 266.4 127 226 C145.15 226 163.3 226 182 226 C182 210.82 182 195.64 182 180 C199.16 180 216.32 180 234 180 C234 201.12 234 222.24 234 244 C241.59 244 249.18 244 257 244 C257 248.29 257 252.58 257 257 C273.17 257 289.34 257 306 257 C306 216.41 306 175.82 306 134 C326.79 134 347.58 134 369 134 C369 183.83 369 233.66 369 285 C384.84 285 400.68 285 417 285 C417 257.61 417 230.22 417 202 C442.41 202 467.82 202 494 202 C494 274.6 494 347.2 494 422 C475.52 422 457.04 422 438 422 C438 427.28 438 432.56 438 438 C410.28 438 382.56 438 354 438 C354 393.78 354 349.56 354 304 C332.55 304 311.1 304 289 304 C289 345.91 289 387.82 289 431 C281.08 431 273.16 431 265 431 C265 414.83 265 398.66 265 382 C242.89 382 220.78 382 198 382 C198 400.48 198 418.96 198 438 C192.06 438 186.12 438 180 438 C180 447.57 180 457.14 180 467 C129.015 467.495 129.015 467.495 77 468 C76.67 481.86 76.34 495.72 76 510 C60.49 510 44.98 510 29 510 C29 473.7 29 437.4 29 400 C22.73 400 16.46 400 10 400 C10 303.64 10 207.28 10 108 C6.7 108 3.4 108 0 108 C0 72.36 0 36.72 0 0 Z " fill="#818181" transform="translate(1426,490)"/>
<path d="M0 0 C0.33 0 0.66 0 1 0 C1.05819916 0.72361221 1.11639832 1.44722443 1.17636108 2.19276428 C1.72787667 9.03418063 2.28622747 15.87500898 2.8521328 22.71524906 C3.14278623 26.23134299 3.43085437 29.74760782 3.71289062 33.2644043 C4.03774479 37.31365621 4.37406398 41.36188641 4.7109375 45.41015625 C4.80998383 46.66458023 4.90903015 47.91900421 5.01107788 49.21144104 C5.52137629 59.54340072 5.52137629 59.54340072 10.13671875 68.40625 C10.97847656 69.0971875 11.82023438 69.788125 12.6875 70.5 C13.57566406 71.25410156 14.46382812 72.00820313 15.37890625 72.78515625 C16.67634766 73.88150391 16.67634766 73.88150391 18 75 C19.39232787 76.29410368 20.76984729 77.60451748 22.125 78.9375 C22.68445313 79.48277344 23.24390625 80.02804687 23.8203125 80.58984375 C25 82 25 82 25 84 C31.98569968 86.32856656 39.6466037 85.61297914 47 86 C47 155.96 47 225.92 47 298 C71.42 298 95.84 298 121 298 C121 320.44 121 342.88 121 366 C131.23 366 141.46 366 152 366 C152 333.99 152 301.98 152 269 C152.33 269 152.66 269 153 269 C153 329.72 153 390.44 153 453 C139.8 453 126.6 453 113 453 C113 436.17 113 419.34 113 402 C68.78 402 24.56 402 -21 402 C-21 450.18 -21 498.36 -21 548 C-32.88 548 -44.76 548 -57 548 C-57 507.41 -57 466.82 -57 425 C-90.99 425 -124.98 425 -160 425 C-160 408.5 -160 392 -160 375 C-174.85 375 -189.7 375 -205 375 C-205 267.42 -205 159.84 -205 49 C-183.88 49 -162.76 49 -141 49 C-141 78.04 -141 107.08 -141 137 C-122.52 136.67 -104.04 136.34 -85 136 C-85 179.23 -85 222.46 -85 267 C-72.79 267 -60.58 267 -48 267 C-47.67 207.27 -47.34 147.54 -47 86 C-40.73 85.67 -34.46 85.34 -28 85 C-24.02083333 83.51041667 -24.02083333 83.51041667 -23.0625 81.125 C-21.62851465 78.2570293 -19.50768261 76.97032205 -17 75 C-16.071875 73.824375 -16.071875 73.824375 -15.125 72.625 C-13.26290023 70.32475911 -11.79072678 69.08190232 -9.45703125 67.3671875 C-6.00583609 64.42963775 -5.08994387 62.29474175 -4.67431641 57.83691406 C-4.61896729 56.6801416 -4.61896729 56.6801416 -4.5625 55.5 C-4.49724121 54.67467773 -4.43198242 53.84935547 -4.36474609 52.99902344 C-3.86747599 45.83887003 -4.03858716 38.69488525 -4.17797852 31.52490234 C-4.24509105 20.81147288 -2.1781166 10.45322181 0 0 Z " fill="#393939" transform="translate(205,574)"/>
<path d="M0 0 C0 13.86 0 27.72 0 42 C1.65 42 3.3 42 5 42 C5 102.06 5 162.12 5 224 C8.96 224 12.92 224 17 224 C17 208.82 17 193.64 17 178 C25.25 178 33.5 178 42 178 C42 120.58 42 63.16 42 4 C45.3 4 48.6 4 52 4 C52 6.97 52 9.94 52 13 C51.67 13 51.34 13 51 13 C51 10.36 51 7.72 51 5 C48.36 5 45.72 5 43 5 C43 157.79 43 310.58 43 468 C33.43 468 23.86 468 14 468 C14 424.44 14 380.88 14 336 C-30.55 336 -75.1 336 -121 336 C-121 317.52 -121 299.04 -121 280 C-142.78 280.33 -164.56 280.66 -187 281 C-187.33 336.11 -187.66 391.22 -188 448 C-206.15 448 -224.3 448 -243 448 C-244 447 -244 447 -244.12304783 444.78422451 C-244.12212604 443.79698422 -244.12120424 442.80974394 -244.12025452 441.79258728 C-244.12162918 440.66371597 -244.12300385 439.53484467 -244.12442017 438.37176514 C-244.11902725 436.49765961 -244.11902725 436.49765961 -244.11352539 434.58569336 C-244.11367142 433.27856888 -244.11381744 431.9714444 -244.1139679 430.62471008 C-244.11425586 427.02982901 -244.10835928 423.43498103 -244.10139394 419.84010768 C-244.09516026 416.08713748 -244.09455659 412.3341666 -244.09336853 408.58119202 C-244.09025526 401.46969174 -244.08204192 394.35820675 -244.07201904 387.24671322 C-244.0587725 377.64027711 -244.05335796 368.03383685 -244.04751682 358.42739391 C-244.03810203 343.28491781 -244.01818309 328.14247399 -244 313 C-264.79 313 -285.58 313 -307 313 C-307 283.3 -307 253.6 -307 223 C-298.75 223 -290.5 223 -282 223 C-282 230.26 -282 237.52 -282 245 C-277.71 245 -273.42 245 -269 245 C-269 217.94 -269 190.88 -269 163 C-267.35 163 -265.7 163 -264 163 C-264 154.42 -264 145.84 -264 137 C-262.02 137 -260.04 137 -258 137 C-258 130.07 -258 123.14 -258 116 C-253.38 116 -248.76 116 -244 116 C-244 110.72 -244 105.44 -244 100 C-240.7 100 -237.4 100 -234 100 C-233.67 88.12 -233.34 76.24 -233 64 C-232.67 64 -232.34 64 -232 64 C-231.6587842 67.77016231 -231.32851717 71.54121166 -231 75.3125 C-230.90460938 76.36501953 -230.80921875 77.41753906 -230.7109375 78.50195312 C-230.11977123 85.36370447 -229.90855206 92.11282734 -230 99 C-226.7 99 -223.4 99 -220 99 C-220 104.28 -220 109.56 -220 115 C-215.71 115 -211.42 115 -207 115 C-207 122.26 -207 129.52 -207 137 C-205.02 137 -203.04 137 -201 137 C-201 145.58 -201 154.16 -201 163 C-199.35 163 -197.7 163 -196 163 C-196 186.43 -196 209.86 -196 234 C-186.76 234 -177.52 234 -168 234 C-168 225.75 -168 217.5 -168 209 C-164.04 209 -160.08 209 -156 209 C-156 196.46 -156 183.92 -156 171 C-155.01 171 -154.02 171 -153 171 C-153 165.72 -153 160.44 -153 155 C-151.35 155 -149.7 155 -148 155 C-148 147.41 -148 139.82 -148 132 C-143.05 132 -138.1 132 -133 132 C-133 102.63 -133 73.26 -133 43 C-131.68 43 -130.36 43 -129 43 C-129 38.71 -129 34.42 -129 30 C-123.06 30 -117.12 30 -111 30 C-111 26.04 -111 22.08 -111 18 C-94.19922727 12.55423229 -77.39999458 8.05416154 -60 5 C-58.66995824 4.7440593 -57.34052874 4.48491711 -56.01171875 4.22265625 C-52.01569691 3.43475632 -48.01192041 2.70218667 -44 2 C-42.81921875 1.79117188 -41.6384375 1.58234375 -40.421875 1.3671875 C-26.99858128 -0.66058666 -13.5469356 -0.130259 0 0 Z " fill="#393939" transform="translate(772,728)"/>
<path d="M0 0 C0.33 0 0.66 0 1 0 C1.26377932 9.71133035 1.52474131 19.42273145 1.78230286 29.13422871 C1.90203884 33.64575663 2.02267298 38.15725647 2.14550781 42.66870117 C2.26445996 47.03884894 2.38085966 51.40905849 2.49563599 55.77931786 C2.53940646 57.42991662 2.58403061 59.08049301 2.62960815 60.73104286 C2.95351626 72.4901434 3.05171173 84.23655634 3 96 C3.99 96.33 4.98 96.66 6 97 C7.7265625 98.93359375 7.7265625 98.93359375 9.625 101.4375 C16.51082307 110.43919599 16.51082307 110.43919599 24.60249329 118.31343079 C26.52509829 120.63371045 26.36228464 122.12548116 26.34057617 125.11401367 C26.34034958 126.15486618 26.34012299 127.19571869 26.33988953 128.26811218 C26.31666374 129.95104118 26.31666374 129.95104118 26.29296875 131.66796875 C26.28872391 132.81791824 26.28447906 133.96786774 26.28010559 135.15266418 C26.26329189 138.83117941 26.22563377 142.50914992 26.1875 146.1875 C26.17245669 148.67902856 26.15876767 151.17056568 26.14648438 153.66210938 C26.1133794 159.77494997 26.06157774 165.88738258 26 172 C30.29 172 34.58 172 39 172 C39 200.71 39 229.42 39 259 C45.27 259 51.54 259 58 259 C58 325.33 58 391.66 58 460 C72.19 460 86.38 460 101 460 C101 467.26 101 474.52 101 482 C103.64 482 106.28 482 109 482 C109 427.88 109 373.76 109 318 C109.33 318 109.66 318 110 318 C110 413.37 110 508.74 110 607 C99.77 607 89.54 607 79 607 C79 602.38 79 597.76 79 593 C66.46 593 53.92 593 41 593 C41 599.6 41 606.2 41 613 C35.72 613 30.44 613 25 613 C25 624.55 25 636.1 25 648 C18.07 648 11.14 648 4 648 C4 606.09 4 564.18 4 521 C-28.34 521 -60.68 521 -94 521 C-94 546.41 -94 571.82 -94 598 C-112.15 598 -130.3 598 -149 598 C-149 575.56 -149 553.12 -149 530 C-159.89 530 -170.78 530 -182 530 C-182 504.26 -182 478.52 -182 452 C-185.3 452 -188.6 452 -192 452 C-192 455.3 -192 458.6 -192 462 C-195.96 462 -199.92 462 -204 462 C-204 453.75 -204 445.5 -204 437 C-209.28 437 -214.56 437 -220 437 C-220 430.07 -220 423.14 -220 416 C-225.94 416 -231.88 416 -238 416 C-238 407.75 -238 399.5 -238 391 C-240.31 391 -242.62 391 -245 391 C-247.28571429 382.57142857 -247.28571429 382.57142857 -247 378 C-247.99 378 -248.98 378 -250 378 C-250.8068229 360.6490161 -251.09544233 343.37050477 -251 326 C-243.08 326 -235.16 326 -227 326 C-227 339.86 -227 353.72 -227 368 C-206.54 368 -186.08 368 -165 368 C-165 348.53 -165 329.06 -165 309 C-140.91 309 -116.82 309 -92 309 C-92 360.15 -92 411.3 -92 464 C-80.45 464 -68.9 464 -57 464 C-57 396.35 -57 328.7 -57 259 C-51.39 259 -45.78 259 -40 259 C-40 229.96 -40 200.92 -40 171 C-35.71 171 -31.42 171 -27 171 C-27.02618408 169.48124268 -27.05236816 167.96248535 -27.0793457 166.39770508 C-27.16987895 160.76032252 -27.2272618 155.12300415 -27.2746582 149.48510742 C-27.29979496 147.04554436 -27.33390946 144.60605655 -27.37719727 142.16674805 C-27.43788229 138.65915354 -27.466219 135.1525551 -27.48828125 131.64453125 C-27.51408768 130.55477493 -27.5398941 129.46501862 -27.56648254 128.34223938 C-27.56929749 120.73434617 -27.56929749 120.73434617 -24.63452148 116.94873047 C-23.33043335 115.98410889 -23.33043335 115.98410889 -22 115 C-20.23791033 113.11539818 -18.48786238 111.21946575 -16.75 109.3125 C-15.87859375 108.35988281 -15.0071875 107.40726562 -14.109375 106.42578125 C-11.99506137 104.1979846 -11.99506137 104.1979846 -11 102 C-10.34 102 -9.68 102 -9 102 C-8.71125 101.38125 -8.4225 100.7625 -8.125 100.125 C-7 98 -7 98 -5 96 C-4.59711171 93.42508842 -4.59711171 93.42508842 -4.51342773 90.37402344 C-4.45674423 89.18967712 -4.40006073 88.00533081 -4.34165955 86.78509521 C-4.28949783 85.48960754 -4.23733612 84.19411987 -4.18359375 82.859375 C-4.12236591 81.49917126 -4.06034438 80.13900305 -3.99757385 78.77886963 C-3.83327659 75.16736936 -3.68071111 71.55545977 -3.53027344 67.94335938 C-3.40967925 65.09225893 -3.28105922 62.24155187 -3.15184593 59.39083099 C-2.60652 47.3521234 -2.08980205 35.31320137 -1.72314453 23.26757812 C-1.70149388 22.56713001 -1.67984324 21.8666819 -1.65753651 21.14500809 C-1.55494832 17.8054246 -1.45818058 14.46593319 -1.370224 11.12591553 C-1.3357869 9.95288879 -1.30134979 8.77986206 -1.26586914 7.57128906 C-1.23836075 6.53973694 -1.21085236 5.50818481 -1.18251038 4.44537354 C-1 2 -1 2 0 0 Z " fill="#828282" transform="translate(1137,280)"/>
<path d="M0 0 C0.33 0 0.66 0 1 0 C1.79704752 5.68259384 2.1818954 11.23478091 2.28125 16.96875 C2.29965942 17.80732544 2.31806885 18.64590088 2.33703613 19.5098877 C2.39524304 22.17319361 2.44818404 24.83656264 2.5 27.5 C2.71813418 38.53310454 3.00170507 49.52832958 3.79272461 60.53710938 C4.10133879 65.69303812 4.08800018 70.83732297 4 76 C4.99 76 5.98 76 7 76 C7 81.94 7 87.88 7 94 C8.35996094 93.98839844 9.71992187 93.97679687 11.12109375 93.96484375 C12.8932278 93.95546738 14.66536333 93.94636702 16.4375 93.9375 C17.78424805 93.92493164 17.78424805 93.92493164 19.15820312 93.91210938 C20.01220703 93.90888672 20.86621094 93.90566406 21.74609375 93.90234375 C22.53685303 93.89710693 23.3276123 93.89187012 24.14233398 93.88647461 C26 94 26 94 27 95 C27.08783542 97.21855264 27.10694609 99.43988496 27.09765625 101.66015625 C27.09553383 102.65685585 27.09553383 102.65685585 27.09336853 103.6736908 C27.08775518 105.80333899 27.07520054 107.93288339 27.0625 110.0625 C27.05748671 111.50325369 27.05292351 112.94400903 27.04882812 114.38476562 C27.03778145 117.92321102 27.02050792 121.46159539 27 125 C30.96 125 34.92 125 39 125 C39 202.88 39 280.76 39 361 C62.76 360.505 62.76 360.505 87 360 C87.33 355.05 87.66 350.1 88 345 C96.91 345 105.82 345 115 345 C114.86078125 340.7615625 114.7215625 336.523125 114.578125 332.15625 C114.50086048 328.75968654 114.43582454 325.3633739 114.3789978 321.96643066 C114.31581087 318.3885651 114.23154894 314.81415253 114.09472656 311.23828125 C113.96356645 307.78849171 113.89244894 304.34202966 113.86147308 300.88993835 C113.82875311 298.94361287 113.73517654 296.9986152 113.64044189 295.05432129 C113.63763365 291.33433 113.77010425 288.51612293 115 285 C118.60625973 281.44907467 123.67200681 277 129 277 C129 276.34 129 275.68 129 275 C130.60875 274.13375 130.60875 274.13375 132.25 273.25 C135.32691295 271.50147316 137.53360665 269.54860646 140 267 C144.5 264 144.5 264 147 264 C147 263.34 147 262.68 147 262 C172.74 262 198.48 262 225 262 C225 319.42 225 376.84 225 436 C199.59 436 174.18 436 148 436 C148 463.39 148 490.78 148 519 C132.16 519 116.32 519 100 519 C100 469.17 100 419.34 100 368 C79.21 368 58.42 368 37 368 C37 408.59 37 449.18 37 491 C20.83 491 4.66 491 -12 491 C-12 486.71 -12 482.42 -12 478 C-19.59 478 -27.18 478 -35 478 C-35 456.88 -35 435.76 -35 414 C-52.16 414 -69.32 414 -87 414 C-87 429.18 -87 444.36 -87 460 C-105.15 460 -123.3 460 -142 460 C-142 486.73 -142 513.46 -142 541 C-152.56 540.67 -163.12 540.34 -174 540 C-174 471.69 -174 403.38 -174 333 C-173.67 333 -173.34 333 -173 333 C-173 340.59 -173 348.18 -173 356 C-158.48 356 -143.96 356 -129 356 C-129 333.23 -129 310.46 -129 287 C-117.12 287 -105.24 287 -93 287 C-93 241.13 -93 195.26 -93 148 C-74.52 148 -56.04 148 -37 148 C-37 140.41 -37 132.82 -37 125 C-33.04 125 -29.08 125 -25 125 C-25 114.77 -25 104.54 -25 94 C-18.4 94 -11.8 94 -5 94 C-5 88.39 -5 82.78 -5 77 C-4.01 77 -3.02 77 -2 77 C-2.01047363 76.37287109 -2.02094727 75.74574219 -2.03173828 75.09960938 C-2.38262082 50.03149457 -1.16477416 25.03489985 0 0 Z " fill="#CCCCCC" transform="translate(1695,256)"/>
<path d="M0 0 C31.02 0 62.04 0 94 0 C94 55.11 94 110.22 94 167 C106.21 166.67 118.42 166.34 131 166 C131 140.92 131 115.84 131 90 C169.28 90 207.56 90 247 90 C247 126.96 247 163.92 247 202 C264.16 202 281.32 202 299 202 C299 256.78 299 311.56 299 368 C287.45 368 275.9 368 264 368 C264 316.85 264 265.7 264 213 C239.91 213 215.82 213 191 213 C191 232.47 191 251.94 191 272 C170.54 272 150.08 272 129 272 C129 258.14 129 244.28 129 230 C121.08 230 113.16 230 105 230 C104.67 220.1 104.34 210.2 104 200 C102.03448534 209.82757328 102.40056758 219.98581056 102 230 C77.25 230 52.5 230 27 230 C27 268.61 27 307.22 27 347 C19.08 347 11.16 347 3 347 C3 316.64 3 286.28 3 255 C-32.31 255 -67.62 255 -104 255 C-104 206.82 -104 158.64 -104 109 C-103.67 109 -103.34 109 -103 109 C-103 128.47 -103 147.94 -103 168 C-91.12 168 -79.24 168 -67 168 C-67 186.15 -67 204.3 -67 223 C-54.46 223 -41.92 223 -29 223 C-29 203.86 -29 184.72 -29 165 C-19.43 165 -9.86 165 0 165 C0 110.55 0 56.1 0 0 Z " fill="#CCCCCC" transform="translate(781,376)"/>
<path d="M0 0 C58.08 0 116.16 0 176 0 C176 33 176 66 176 100 C178.64 100 181.28 100 184 100 C184 112.87 184 125.74 184 139 C183.67 139 183.34 139 183 139 C183 126.46 183 113.92 183 101 C176.73 101 170.46 101 164 101 C164 95.06 164 89.12 164 83 C162.68 83 161.36 83 160 83 C159.34 60.23 158.68 37.46 158 14 C157.39199513 23.72807798 156.81371136 33.42128226 156.46484375 43.15625 C156.42186661 44.31000122 156.37888947 45.46375244 156.33460999 46.65246582 C156.20034941 50.26824369 156.06886793 53.88411601 155.9375 57.5 C155.84588876 59.98047561 155.7540933 62.46094443 155.66210938 64.94140625 C155.43928357 70.96086084 155.21872723 76.98039516 155 83 C153.68 83 152.36 83 151 83 C151 88.94 151 94.88 151 101 C144.73 101 138.46 101 132 101 C132 113.54 132 126.08 132 139 C123.75 139 115.5 139 107 139 C107 222.82 107 306.64 107 393 C93.8 393 80.6 393 67 393 C67 359.67 67 326.34 67 292 C53.47 292 39.94 292 26 292 C26 340.18 26 388.36 26 438 C19.73 438 13.46 438 7 438 C7 366.72 7 295.44 7 222 C-1.58 222 -10.16 222 -19 222 C-19 206.49 -19 190.98 -19 175 C-13.06 174.67 -7.12 174.34 -1 174 C-0.67 116.58 -0.34 59.16 0 0 Z " fill="#CCCCCC" transform="translate(469,346)"/>
<path d="M0 0 C3.3 0 6.6 0 10 0 C10 25.74 10 51.48 10 78 C20.89 78 31.78 78 43 78 C43 100.44 43 122.88 43 146 C61.15 146 79.3 146 98 146 C98 120.59 98 95.18 98 69 C130.34 69 162.68 69 196 69 C196 110.91 196 152.82 196 196 C202.93 196 209.86 196 217 196 C217 252.1 217 308.2 217 366 C202.48 366 187.96 366 173 366 C173 325.74 173 285.48 173 244 C134.39 244 95.78 244 56 244 C56 271.06 56 298.12 56 326 C40.49 326 24.98 326 9 326 C9 218.75 9 111.5 9 1 C6.36 1 3.72 1 1 1 C1 3.64 1 6.28 1 9 C0.67 9 0.34 9 0 9 C0 6.03 0 3.06 0 0 Z " fill="#393939" transform="translate(945,732)"/>
<path d="M0 0 C21.12 0 42.24 0 64 0 C64 29.04 64 58.08 64 88 C82.48 87.67 100.96 87.34 120 87 C120 130.23 120 173.46 120 218 C132.54 218 145.08 218 158 218 C158 252.65 158 287.3 158 323 C146.45 323 134.9 323 123 323 C123 325.64 123 328.28 123 331 C118.38 331 113.76 331 109 331 C109 323.08 109 315.16 109 307 C100.09 307 91.18 307 82 307 C82 287.53 82 268.06 82 248 C70.78 248 59.56 248 48 248 C48 240.08 48 232.16 48 224 C32.16 224 16.32 224 0 224 C0 150.08 0 76.16 0 0 Z " fill="#828282" transform="translate(0,623)"/>
<path d="M0 0 C20.92342887 -0.04010881 20.92342887 -0.04010881 29.81054688 -0.04882812 C35.88566964 -0.05481667 41.9607774 -0.06191728 48.03588867 -0.07543945 C52.93120552 -0.08626799 57.82650629 -0.09227676 62.72183418 -0.09487724 C64.59382951 -0.09673155 66.46582391 -0.10035228 68.33781242 -0.10573006 C70.95040699 -0.11294004 73.56293427 -0.11399096 76.17553711 -0.11352539 C76.95740387 -0.11712067 77.73927063 -0.12071594 78.54483032 -0.12442017 C83.88594784 -0.11405216 83.88594784 -0.11405216 85 1 C85.09511266 3.64738089 85.12555635 6.26859001 85.11352539 8.91625977 C85.11367142 9.74545929 85.11381744 10.57465881 85.1139679 11.4289856 C85.11326851 14.18315198 85.10547493 16.93725161 85.09765625 19.69140625 C85.09579216 21.59569766 85.09436822 23.49998955 85.09336853 25.40428162 C85.08954263 30.42667963 85.07971173 35.44904892 85.06866455 40.47143555 C85.05845198 45.5922812 85.05387124 50.71313148 85.04882812 55.83398438 C85.03808952 65.8893376 85.02049215 75.94466192 85 86 C96.55 86 108.1 86 120 86 C120 141.44 120 196.88 120 254 C112.08 254 104.16 254 96 254 C96 228.92 96 203.84 96 178 C84.45 178 72.9 178 61 178 C57 173 57 173 57 171 C56.34 171 55.68 171 55 171 C54.01 168.525 54.01 168.525 53 166 C31.22 166 9.44 166 -13 166 C-13 149.83 -13 133.66 -13 117 C-19.6 117 -26.2 117 -33 117 C-47.0625 102.9375 -47.0625 102.9375 -48.54760742 101.42553711 C-49.90387809 100.09434457 -51.35034419 98.85682158 -52.80078125 97.62890625 C-55.65522382 94.21675731 -55.92320551 91.21757656 -56.1875 86.9375 C-56.32409171 85.33462459 -56.46081556 83.73176043 -56.59765625 82.12890625 C-56.66098145 81.29375488 -56.72430664 80.45860352 -56.78955078 79.59814453 C-57.00455054 76.94382036 -57.27287481 74.29994165 -57.55859375 71.65234375 C-57.65309814 70.7713501 -57.74760254 69.89035645 -57.8449707 68.98266602 C-58.02683592 67.28911554 -58.20895047 65.59559182 -58.39135742 63.90209961 C-58.8985494 58.90556634 -59.08045132 54.02246122 -59 49 C-56.35409986 48.97315321 -53.70846904 48.95323643 -51.0625 48.9375 C-50.30775391 48.92912109 -49.55300781 48.92074219 -48.77539062 48.91210938 C-46.85005687 48.90347559 -44.92464419 48.94775667 -43 49 C-40.16176894 51.83823106 -42 56.98613514 -42 61 C-28.14 61 -14.28 61 0 61 C0 40.87 0 20.74 0 0 Z " fill="#CCCCCC" transform="translate(266,543)"/>
<path d="M0 0 C32.34 0 64.68 0 98 0 C98 19.8 98 39.6 98 60 C102.29 60 106.58 60 111 60 C111 60.33 111 60.66 111 61 C105.06 61 99.12 61 93 61 C93 96.64 93 132.28 93 169 C89.7 169 86.4 169 83 169 C83 223.12 83 277.24 83 333 C80.36 333 77.72 333 75 333 C75 325.74 75 318.48 75 311 C60.81 311 46.62 311 32 311 C32 244.67 32 178.34 32 110 C25.73 110 19.46 110 13 110 C13 81.29 13 52.58 13 23 C8.71 23 4.42 23 0 23 C0 15.41 0 7.82 0 0 Z " fill="#CCCCCC" transform="translate(1163,429)"/>
<path d="M0 0 C0.33 0 0.66 0 1 0 C1.26377932 9.71133035 1.52474131 19.42273145 1.78230286 29.13422871 C1.90203884 33.64575663 2.02267298 38.15725647 2.14550781 42.66870117 C2.26445996 47.03884894 2.38085966 51.40905849 2.49563599 55.77931786 C2.53940646 57.42991662 2.58403061 59.08049301 2.62960815 60.73104286 C2.95351626 72.4901434 3.05171173 84.23655634 3 96 C3.99 96.33 4.98 96.66 6 97 C7.1875 99.0625 7.1875 99.0625 8 101 C7.01 101.99 7.01 101.99 6 103 C5.01 102.01 4.02 101.02 3 100 C2.01 100.99 1.02 101.98 0 103 C-0.99 102.67 -1.98 102.34 -3 102 C-3.33 101.01 -3.66 100.02 -4 99 C-4.66 98.34 -5.32 97.68 -6 97 C-5.505 96.505 -5.505 96.505 -5 96 C-4.82245827 94.16689116 -4.71162082 92.32728807 -4.62695312 90.48754883 C-4.57019409 89.30312698 -4.51343506 88.11870514 -4.45495605 86.89839172 C-4.39763306 85.59774277 -4.34031006 84.29709381 -4.28125 82.95703125 C-4.21817276 81.59541689 -4.15473026 80.23381941 -4.09094238 78.87223816 C-3.95696174 75.99120366 -3.82615024 73.11004845 -3.69775391 70.22875977 C-3.53747272 66.63317455 -3.37169271 63.03787447 -3.20365906 59.44264412 C-2.64115757 47.38517127 -2.08808747 35.32835453 -1.71875 23.26318359 C-1.69703987 22.562676 -1.67532974 21.86216841 -1.65296173 21.14043331 C-1.5504549 17.80132824 -1.45438465 14.46231088 -1.36706543 11.12275696 C-1.31588562 9.3636927 -1.31588562 9.3636927 -1.26367188 7.5690918 C-1.23656128 6.53793747 -1.20945068 5.50678314 -1.18151855 4.44438171 C-1 2 -1 2 0 0 Z M3 101 C3.99 101.495 3.99 101.495 5 102 C4.01 102.495 4.01 102.495 3 103 C3 102.34 3 101.68 3 101 Z " fill="#8D8D8D" transform="translate(1137,280)"/>
<path d="M0 0 C0.33 0 0.66 0 1 0 C2.11445314 7.43593104 2.34472688 14.86706603 2.5625 22.375 C2.58301422 23.05854553 2.60352844 23.74209106 2.62466431 24.4463501 C2.93964869 35.16201043 3.12752496 45.87872128 3.17623901 56.59893799 C3.18373435 58.11389037 3.19440536 59.62883043 3.20828247 61.14373779 C3.22599535 63.26000355 3.23030863 65.37585684 3.23046875 67.4921875 C3.23457764 68.70245605 3.23868652 69.91272461 3.24291992 71.15966797 C3 74 3 74 1 76 C0.30251417 77.31747324 -0.36959957 78.64914193 -1 80 C-1 79.34 -1 78.68 -1 78 C-2.32 78 -3.64 78 -5 78 C-5 83.28 -5 88.56 -5 94 C-5.33 94 -5.66 94 -6 94 C-6 88.39 -6 82.78 -6 77 C-4.68 77 -3.36 77 -2 77 C-2.01160156 75.8241333 -2.02320313 74.6482666 -2.03515625 73.43676758 C-2.13781263 57.83566221 -1.59648782 42.27524804 -1 26.6875 C-0.90329167 24.0852996 -0.80693532 21.48308609 -0.7109375 18.88085938 C-0.4780043 12.58708315 -0.240771 6.29348101 0 0 Z " fill="#888888" transform="translate(626,352)"/>
<path d="M0 0 C0.33 0 0.66 0 1 0 C1.95401858 9.69938399 2.31201119 19.38841912 2.5625 29.125 C2.58367889 29.90548706 2.60485779 30.68597412 2.62667847 31.4901123 C3.0087642 45.66182226 3.12392498 59.82298235 3 74 C2.01 74 1.02 74 0 74 C-0.33 74.99 -0.66 75.98 -1 77 C-2.02559709 73.92320873 -2.12907163 71.80478728 -2.1328125 68.58203125 C-2.13482666 67.50163574 -2.13684082 66.42124023 -2.13891602 65.30810547 C-2.13432373 64.15455566 -2.12973145 63.00100586 -2.125 61.8125 C-2.12234131 60.62285645 -2.11968262 59.43321289 -2.11694336 58.20751953 C-2.07778393 50.92584839 -1.80271798 43.73742018 -1.28393555 36.47583008 C-1.00397166 32.28988467 -0.83636178 28.10714463 -0.7109375 23.9140625 C-0.67680504 22.8310083 -0.67680504 22.8310083 -0.64198303 21.72607422 C-0.57193669 19.48410236 -0.50430779 17.24207056 -0.4375 15 C-0.41535431 14.26062195 -0.39320862 13.5212439 -0.37039185 12.75946045 C-0.24358395 8.50640035 -0.12033846 4.25324876 0 0 Z " fill="#070707" transform="translate(884,584)"/>
<path d="M0 0 C0.33 0 0.66 0 1 0 C1.14577868 5.73926025 1.28798802 11.47859541 1.42724609 17.21801758 C1.47482809 19.16009764 1.52329438 21.1021563 1.57275391 23.04418945 C1.91970697 36.69927068 2.06332358 50.34057629 2 64 C1.34 63.01 0.68 62.02 0 61 C-0.66 77.17 -1.32 93.34 -2 110 C-2.33 110 -2.66 110 -3 110 C-3.10799243 94.39094048 -3.05206303 78.8237896 -2.42602539 63.22436523 C-2.10905115 55.01984142 -1.90093071 46.81843969 -1.74609375 38.609375 C-1.71498253 36.97934036 -1.71498253 36.97934036 -1.6832428 35.31637573 C-1.57986241 29.8303129 -1.48301604 24.34420484 -1.39282227 18.85791016 C-1.35577474 16.82974998 -1.31859018 14.80159231 -1.28125 12.7734375 C-1.26770981 11.8310321 -1.25416962 10.88862671 -1.24021912 9.91766357 C-1.22346634 9.04941956 -1.20671356 8.18117554 -1.18945312 7.28662109 C-1.17692505 6.52803802 -1.16439697 5.76945496 -1.15148926 4.98788452 C-1 3 -1 3 0 0 Z " fill="#666666" transform="translate(1340,152)"/>
<path d="M0 0 C0.33 0 0.66 0 1 0 C1.75818275 22.34219375 2.14892791 44.64477542 2 67 C1.67 67 1.34 67 1 67 C0.505 64.525 0.505 64.525 0 62 C-0.33 68.93 -0.66 75.86 -1 83 C-1.33 83 -1.66 83 -2 83 C-2.41314186 55.29724904 -1.22093945 27.67135607 0 0 Z " fill="#232323" transform="translate(411,661)"/>
<path d="M0 0 C0.33 0 0.66 0 1 0 C1 36.63 1 73.26 1 111 C0.67 111 0.34 111 0 111 C-0.66 106.38 -1.32 101.76 -2 97 C-2.33 97 -2.66 97 -3 97 C-3.66 94.03 -4.32 91.06 -5 88 C-3.68 88 -2.36 88 -1 88 C-0.67 58.96 -0.34 29.92 0 0 Z " fill="#F0F0F0" transform="translate(207,481)"/>
<path d="M0 0 C6.27 0 12.54 0 19 0 C19 11.22 19 22.44 19 34 C18.34 34 17.68 34 17 34 C17.33 32.02 17.66 30.04 18 28 C17.34 28 16.68 28 16 28 C15.94188227 24.25006521 15.90636407 20.50024648 15.875 16.75 C15.85824219 15.68652344 15.84148437 14.62304688 15.82421875 13.52734375 C15.81777344 12.50253906 15.81132812 11.47773438 15.8046875 10.421875 C15.79421387 9.47924805 15.78374023 8.53662109 15.77294922 7.56542969 C16.00880787 4.90048059 16.64338341 3.28136908 18 1 C16.35 1 14.7 1 13 1 C12.67 1.99 12.34 2.98 12 4 C9.69 4 7.38 4 5 4 C5 3.01 5 2.02 5 1 C3.35 1 1.7 1 0 1 C0 0.67 0 0.34 0 0 Z " fill="#D0D0D0" transform="translate(147,403)"/>
<path d="M0 0 C0.33 0 0.66 0 1 0 C2.08989564 7.10721866 2.29988824 14.21929578 2.50268555 21.39648438 C2.56157923 23.46761914 2.62697783 25.53846825 2.69335938 27.609375 C2.98378391 37.0749386 3.04988155 46.53042398 3 56 C2.67 56 2.34 56 2 56 C2 51.38 2 46.76 2 42 C1.34 42 0.68 42 0 42 C-0.33 42.66 -0.66 43.32 -1 44 C-1.14630428 29.3045475 -0.71451184 14.67789752 0 0 Z " fill="#939393" transform="translate(626,352)"/>
<path d="M0 0 C0.33 0 0.66 0 1 0 C1.79531165 13.34987408 2.12803877 26.62706162 2 40 C1.67 40 1.34 40 1 40 C0.34 51.88 -0.32 63.76 -1 76 C-1.33 76 -1.66 76 -2 76 C-2.15444245 58.80580364 -1.71977374 41.67795575 -1 24.5 C-0.90320593 22.1041844 -0.80684984 19.70835106 -0.7109375 17.3125 C-0.47897865 11.54145356 -0.24172277 5.77064531 0 0 Z " fill="#4F4F4F" transform="translate(884,556)"/>
<path d="M0 0 C1.32 0.33 2.64 0.66 4 1 C3.34 1 2.68 1 2 1 C2.33 2.65 2.66 4.3 3 6 C2.34 6 1.68 6 1 6 C1.33 9.96 1.66 13.92 2 18 C-1.13349732 19.04449911 -1.98968256 18.93423645 -5 18 C-5.33 18.99 -5.66 19.98 -6 21 C-7.98 21 -9.96 21 -12 21 C-12.33 20.01 -12.66 19.02 -13 18 C-14.32 18.33 -15.64 18.66 -17 19 C-16.98952637 19.82725586 -16.97905273 20.65451172 -16.96826172 21.50683594 C-16.92669088 25.2545264 -16.90067008 29.00216832 -16.875 32.75 C-16.85824219 34.05195313 -16.84148437 35.35390625 -16.82421875 36.6953125 C-16.81777344 37.94570313 -16.81132813 39.19609375 -16.8046875 40.484375 C-16.79421387 41.63647461 -16.78374023 42.78857422 -16.77294922 43.97558594 C-17 47 -17 47 -19 51 C-19 39.78 -19 28.56 -19 17 C-12.73 17 -6.46 17 0 17 C0 11.39 0 5.78 0 0 Z " fill="#D8D8D8" transform="translate(133,386)"/>
<path d="M0 0 C0.33 0 0.66 0 1 0 C2.02043496 9.5946196 2.11986328 19.11729896 2.0625 28.75 C2.05746985 30.23697764 2.05290965 31.72395695 2.04882812 33.2109375 C2.03795432 36.80732706 2.0207752 40.40365237 2 44 C1.67 44 1.34 44 1 44 C0.67 50.6 0.34 57.2 0 64 C-0.33 64 -0.66 64 -1 64 C-1.13950428 42.64082194 -0.80642039 21.3444034 0 0 Z " fill="#151515" transform="translate(1405,632)"/>
<path d="M0 0 C6.93 0 13.86 0 21 0 C21 14.19 21 28.38 21 43 C27.6 43 34.2 43 41 43 C39.68 43.99 38.36 44.98 37 46 C36.01 45.505 36.01 45.505 35 45 C33.46331135 44.77532169 31.92031946 44.59203195 30.375 44.4375 C29.55773437 44.35371094 28.74046875 44.26992188 27.8984375 44.18359375 C26.95871094 44.09271484 26.95871094 44.09271484 26 44 C25.67 44.66 25.34 45.32 25 46 C25 45.34 25 44.68 25 44 C23.35 44 21.7 44 20 44 C20 29.81 20 15.62 20 1 C9.65149322 0.68767526 9.65149322 0.68767526 0 3 C0 2.01 0 1.02 0 0 Z " fill="#DDDDDD" transform="translate(166,437)"/>
<path d="M0 0 C0.33 0 0.66 0 1 0 C1.85439108 13.34986067 2.11978427 26.62409026 2 40 C1.67 40 1.34 40 1 40 C0.67 42.97 0.34 45.94 0 49 C-0.33 49 -0.66 49 -1 49 C-1.02519685 44.59326518 -1.04308799 40.18657133 -1.05493164 35.77978516 C-1.05988214 34.28856677 -1.06664426 32.79735301 -1.07543945 31.30615234 C-1.13558041 20.82747438 -0.78445252 10.44993349 0 0 Z " fill="#131313" transform="translate(1322,640)"/>
<path d="M0 0 C0.33 0 0.66 0 1 0 C1.33 6.93 1.66 13.86 2 21 C2.33 21 2.66 21 3 21 C3.33 14.07 3.66 7.14 4 0 C4.33 0 4.66 0 5 0 C5 8.58 5 17.16 5 26 C4.01 26 3.02 26 2 26 C1.67 26.99 1.34 27.98 1 29 C-0.07917226 25.76248322 -0.11425601 23.42248229 -0.09765625 20.01953125 C-0.09443359 18.85615234 -0.09121094 17.69277344 -0.08789062 16.49414062 C-0.07951172 15.27919922 -0.07113281 14.06425781 -0.0625 12.8125 C-0.05798828 11.58595703 -0.05347656 10.35941406 -0.04882812 9.09570312 C-0.03703065 6.06375332 -0.02056921 3.03190094 0 0 Z " fill="#212121" transform="translate(882,632)"/>
<path d="M0 0 C0.99 0 1.98 0 3 0 C3 0.66 3 1.32 3 2 C2.34 2 1.68 2 1 2 C2.95216435 3.95216435 4.53199953 4.84826645 7 6 C1 12 1 12 -0.94946289 12.11352539 C-1.7821167 12.10828857 -2.61477051 12.10305176 -3.47265625 12.09765625 C-4.37177734 12.09443359 -5.27089844 12.09121094 -6.19726562 12.08789062 C-7.14279297 12.07951172 -8.08832031 12.07113281 -9.0625 12.0625 C-10.01189453 12.05798828 -10.96128906 12.05347656 -11.93945312 12.04882812 C-14.29303065 12.0370011 -16.64648477 12.02052025 -19 12 C-18.67 10.68 -18.34 9.36 -18 8 C-17.34 8.66 -16.68 9.32 -16 10 C-13.26565038 10.3063859 -10.61720179 10.5113336 -7.875 10.625 C-7.12089844 10.66367187 -6.36679688 10.70234375 -5.58984375 10.7421875 C-3.72696816 10.83651031 -1.86351745 10.91934662 0 11 C0 7.37 0 3.74 0 0 Z " fill="#C8C8C8" transform="translate(176,648)"/>
<path d="M0 0 C0.33 0 0.66 0 1 0 C1.375 2.125 1.375 2.125 1 5 C-0.74322351 7.29739641 -2.69638037 9.26333339 -5 11 C-5.66 11 -6.32 11 -7 11 C-7.33 11.99 -7.66 12.98 -8 14 C-8.66 14 -9.32 14 -10 14 C-10.2475 14.639375 -10.495 15.27875 -10.75 15.9375 C-12 18 -12 18 -14.125 18.75 C-15.053125 18.87375 -15.053125 18.87375 -16 19 C-15.34 17.02 -14.68 15.04 -14 13 C-13.34 13 -12.68 13 -12 13 C-11.67 12.34 -11.34 11.68 -11 11 C-8.9375 9.875 -8.9375 9.875 -7 9 C-7 8.34 -7 7.68 -7 7 C-5.35 6.67 -3.7 6.34 -2 6 C-2 5.34 -2 4.68 -2 4 C-1.34 4 -0.68 4 0 4 C0 2.68 0 1.36 0 0 Z " fill="#BDBDBD" transform="translate(199,633)"/>
<path d="M0 0 C0.33 0 0.66 0 1 0 C1.12532101 7.5192604 1.12532101 7.5192604 0.5234375 9.828125 C-0.48619789 14.0173584 -0.40742551 18.39595074 -0.62109375 22.6875 C-0.96465257 25.69098329 -1.4336625 27.46342105 -3 30 C-4.49028012 23.39215417 -3.32543372 17.64692145 -2.0625 11.0625 C-1.86720703 9.99708984 -1.67191406 8.93167969 -1.47070312 7.83398438 C-0.99022978 5.22067815 -0.49976532 2.60967322 0 0 Z " fill="#828282" transform="translate(205,574)"/>
<path d="M0 0 C1.32 0.66 2.64 1.32 4 2 C3.67 3.65 3.34 5.3 3 7 C2.34 6.34 1.68 5.68 1 5 C0.34 6.32 -0.32 7.64 -1 9 C-1.99 9 -2.98 9 -4 9 C-4.33 9.66 -4.66 10.32 -5 11 C-5.66 10.67 -6.32 10.34 -7 10 C-3.535 5.05 -3.535 5.05 0 0 Z " fill="#494949" transform="translate(1316,363)"/>
<path d="M0 0 C0.66 0 1.32 0 2 0 C2 4.62 2 9.24 2 14 C1.01 14 0.02 14 -1 14 C-1.02694851 12.04174127 -1.04637218 10.08337774 -1.0625 8.125 C-1.07410156 7.03445313 -1.08570313 5.94390625 -1.09765625 4.8203125 C-1 2 -1 2 0 0 Z " fill="#818181" transform="translate(626,394)"/>
<path d="M0 0 C0.33 0 0.66 0 1 0 C1.02685938 2.14576637 1.04633088 4.29162645 1.0625 6.4375 C1.07410156 7.63246094 1.08570313 8.82742188 1.09765625 10.05859375 C1 13 1 13 0 14 C-0.23701239 16.85877909 -0.42219182 19.69883297 -0.5625 22.5625 C-0.60568359 23.36880859 -0.64886719 24.17511719 -0.69335938 25.00585938 C-0.79975262 27.00368805 -0.90040888 29.0018207 -1 31 C-1.33 31 -1.66 31 -2 31 C-2.02888146 27.68751813 -2.04675799 24.37506833 -2.0625 21.0625 C-2.07087891 20.11697266 -2.07925781 19.17144531 -2.08789062 18.19726562 C-2.09111328 17.29814453 -2.09433594 16.39902344 -2.09765625 15.47265625 C-2.10289307 14.64000244 -2.10812988 13.80734863 -2.11352539 12.94946289 C-2 11 -2 11 -1 10 C-0.76712992 8.31816052 -0.58735834 6.6287584 -0.4375 4.9375 C-0.35371094 4.01839844 -0.26992187 3.09929687 -0.18359375 2.15234375 C-0.12300781 1.44207031 -0.06242187 0.73179687 0 0 Z " fill="#575757" transform="translate(1331,314)"/>
<path d="M0 0 C1.65 0 3.3 0 5 0 C5 4.95 5 9.9 5 15 C4.67 15 4.34 15 4 15 C3.67 13.02 3.34 11.04 3 9 C2.67 9 2.34 9 2 9 C1.34 6.03 0.68 3.06 0 0 Z " fill="#BCBCBC" transform="translate(202,569)"/>
<path d="M0 0 C2.64 0 5.28 0 8 0 C7.01 1.485 7.01 1.485 6 3 C6.33 3.66 6.66 4.32 7 5 C4.69 5 2.38 5 0 5 C0 3.35 0 1.7 0 0 Z " fill="#777777" transform="translate(892,666)"/>
<path d="M0 0 C2 2 2 2 2.1953125 4.6015625 C2.17210937 5.59929688 2.14890625 6.59703125 2.125 7.625 C2.10695312 8.62789062 2.08890625 9.63078125 2.0703125 10.6640625 C2.03550781 11.82035156 2.03550781 11.82035156 2 13 C1.01 12.67 0.02 12.34 -1 12 C-1.14285714 3.42857143 -1.14285714 3.42857143 0 0 Z " fill="#484848" transform="translate(205,582)"/>
<path d="M0 0 C0.66 0.99 1.32 1.98 2 3 C0.35 5.31 -1.3 7.62 -3 10 C-4 6 -4 6 -3.1875 3.875 C-2 2 -2 2 0 0 Z " fill="#EBEBEB" transform="translate(1303,377)"/>
<path d="M0 0 C0.99 0.33 1.98 0.66 3 1 C2.3125 3.375 2.3125 3.375 1 6 C-1.625 7.3125 -1.625 7.3125 -4 8 C-3.34 6.02 -2.68 4.04 -2 2 C-1.34 2 -0.68 2 0 2 C0 1.34 0 0.68 0 0 Z " fill="#C6C6C6" transform="translate(187,644)"/>
<path d="M0 0 C0.33 0 0.66 0 1 0 C1.06058594 0.77085937 1.12117188 1.54171875 1.18359375 2.3359375 C1.26738281 3.33882813 1.35117188 4.34171875 1.4375 5.375 C1.51871094 6.37273437 1.59992188 7.37046875 1.68359375 8.3984375 C1.84965626 10.97927613 1.84965626 10.97927613 3 13 C2.01 13.33 1.02 13.66 0 14 C-0.99 12.35 -1.98 10.7 -3 9 C-2.34 8.67 -1.68 8.34 -1 8 C-0.53476937 6.10466658 -0.53476937 6.10466658 -0.375 3.9375 C-0.25125 2.638125 -0.1275 1.33875 0 0 Z " fill="#636363" transform="translate(1348,314)"/>
<path d="M0 0 C0.99 0.33 1.98 0.66 3 1 C2.67 3.64 2.34 6.28 2 9 C1.67 9 1.34 9 1 9 C1 7.02 1 5.04 1 3 C0.34 3 -0.32 3 -1 3 C-1 3.66 -1 4.32 -1 5 C-2.98 5 -4.96 5 -7 5 C-7 4.67 -7 4.34 -7 4 C-5.35 4 -3.7 4 -2 4 C-2 3.34 -2 2.68 -2 2 C-1.34 2 -0.68 2 0 2 C0 1.34 0 0.68 0 0 Z " fill="#6E6E6E" transform="translate(875,662)"/>
<path d="M0 0 C1.32 1.32 2.64 2.64 4 4 C3.67 4.66 3.34 5.32 3 6 C0.911361 6.67375452 -0.80363095 7 -3 7 C-3 6.34 -3 5.68 -3 5 C-2.34 5 -1.68 5 -1 5 C-0.67 3.35 -0.34 1.7 0 0 Z " fill="#121212" transform="translate(453,888)"/>
<path d="M0 0 C0 1.65 0 3.3 0 5 C-2.64 4.67 -5.28 4.34 -8 4 C-6 1 -6 1 -4 0.3125 C-2 0 -2 0 0 0 Z " fill="#757575" transform="translate(384,842)"/>
<path d="M0 0 C2.64 0 5.28 0 8 0 C7.67 0.99 7.34 1.98 7 3 C4.69 3 2.38 3 0 3 C0 2.01 0 1.02 0 0 Z " fill="#CCCCCC" transform="translate(152,404)"/>
<path d="M0 0 C0.66 0 1.32 0 2 0 C0.4169423 4.2742558 -2.50568404 6.26531794 -6 9 C-6.66 8.67 -7.32 8.34 -8 8 C-7.50628906 7.59007812 -7.01257813 7.18015625 -6.50390625 6.7578125 C-5.86324219 6.21898437 -5.22257813 5.68015625 -4.5625 5.125 C-3.92441406 4.59132813 -3.28632813 4.05765625 -2.62890625 3.5078125 C-0.89194996 2.0777243 -0.89194996 2.0777243 0 0 Z " fill="#545454" transform="translate(189,647)"/>
<path d="M0 0 C2.64 0 5.28 0 8 0 C7.67 0.99 7.34 1.98 7 3 C5.02 3 3.04 3 1 3 C0.67 2.01 0.34 1.02 0 0 Z " fill="#CCCCCC" transform="translate(120,404)"/>
<path d="M0 0 C1.32 1.65 2.64 3.3 4 5 C2.02 5.33 0.04 5.66 -2 6 C-1.34 4.02 -0.68 2.04 0 0 Z " fill="#4D4D4D" transform="translate(1379,383)"/>
</svg>
