<?xml version="1.0" encoding="UTF-8"?>
<svg version="1.1" xmlns="http://www.w3.org/2000/svg" width="835" height="230">
<path d="M0 0 C0.66 0 1.32 0 2 0 C2 11.55 2 23.1 2 35 C2.66 35 3.32 35 4 35 C4 24.77 4 14.54 4 4 C4.99 4 5.98 4 7 4 C7 14.23 7 24.46 7 35 C16.14163228 34.60642964 16.14163228 34.60642964 25.27709961 34.09912109 C27.00972046 34.06165771 27.00972046 34.06165771 28.77734375 34.0234375 C29.94515381 33.97106934 31.11296387 33.91870117 32.31616211 33.86474609 C38.24946145 35.69321994 41.63233516 39.8936387 45 45 C46.1825943 49.15619872 46.14763362 53.0354775 46.02172852 57.33447266 C46.02304276 58.52586853 46.02435699 59.7172644 46.02571106 60.94476318 C46.02055007 64.1810416 45.97574007 67.41372039 45.91254544 70.64928865 C45.85590493 74.04169549 45.85096762 77.43418912 45.84031677 80.82699585 C45.81245259 87.23762302 45.73875142 93.64685259 45.64817137 100.056867 C45.54722908 107.36026821 45.49800488 114.66373968 45.45291245 121.96766591 C45.35908732 136.97923985 45.19917013 151.98942715 45 167 C51.93 167 58.86 167 66 167 C66 175.25 66 183.5 66 192 C67.32 192 68.64 192 70 192 C70 160.65 70 129.3 70 97 C71.32 97 72.64 97 74 97 C74 83.47 74 69.94 74 56 C75.65 56 77.3 56 79 56 C79 54.35 79 52.7 79 51 C81.64 49.68 84.28 48.36 87 47 C87.33 36.77 87.66 26.54 88 16 C88.66 16 89.32 16 90 16 C90.33 26.23 90.66 36.46 91 47 C94.96 48.98 94.96 48.98 99 51 C99 52.65 99 54.3 99 56 C100.65 56 102.3 56 104 56 C104 57.32 104 58.64 104 60 C109.28 60 114.56 60 120 60 C120.33 60.99 120.66 61.98 121 63 C121.66 62.34 122.32 61.68 123 61 C123.67055285 63.93666226 124.33659053 66.87422359 125 69.8125 C125.19078125 70.64587891 125.3815625 71.47925781 125.578125 72.33789062 C125.75859375 73.14033203 125.9390625 73.94277344 126.125 74.76953125 C126.37636719 75.87711792 126.37636719 75.87711792 126.6328125 77.00708008 C127 79 127 79 127 82 C127.99 82 128.98 82 130 82 C130 83.32 130 84.64 130 86 C130.66 86 131.32 86 132 86 C132 86.99 132 87.98 132 89 C132.99 89.33 133.98 89.66 135 90 C135 91.65 135 93.3 135 95 C135.99 95 136.98 95 138 95 C138 124.04 138 153.08 138 183 C143.58144099 182.59468423 143.58144099 182.59468423 145.65483093 180.6027832 C149.62997354 174.30024099 149.73179818 168.50405129 149.70703125 161.1875 C149.72215256 159.97803711 149.73727386 158.76857422 149.75285339 157.52246094 C149.79564201 153.68144965 149.8045606 149.84122563 149.8125 146 C149.83565092 143.38669795 149.86101748 140.77341452 149.88867188 138.16015625 C149.95143744 131.77342995 149.9864414 125.38701021 150 119 C152.31 119 154.62 119 157 119 C157 101.51 157 84.02 157 66 C158.65 66 160.3 66 162 66 C162 55.77 162 45.54 162 35 C163.98 35 165.96 35 168 35 C168 26.42 168 17.84 168 9 C168.66 9 169.32 9 170 9 C170 17.58 170 26.16 170 35 C171.65 35 173.3 35 175 35 C175 26.42 175 17.84 175 9 C175.99 9 176.98 9 178 9 C178 17.58 178 26.16 178 35 C179.65 35 181.3 35 183 35 C184 36 184 36 184.11352539 38.86743164 C184.10828857 40.11903076 184.10305176 41.37062988 184.09765625 42.66015625 C184.0962413 43.32462265 184.09482635 43.98908905 184.09336853 44.6736908 C184.08775518 46.80333899 184.07520054 48.93288339 184.0625 51.0625 C184.05748671 52.50325369 184.05292351 53.94400903 184.04882812 55.38476562 C184.03778145 58.92321102 184.02050792 62.46159539 184 66 C185.65 66 187.3 66 189 66 C189.33 69.3 189.66 72.6 190 76 C191.92057292 75.25130208 193.84114583 74.50260417 195.76171875 73.75390625 C203.46836886 71.15812358 209.24229029 72 218 72 C218 85.2 218 98.4 218 112 C221.3 112 224.6 112 228 112 C228 107.05 228 102.1 228 97 C230.49505962 99.49505962 230.35948376 100.67328888 230.625 104.125 C230.69976563 105.03507812 230.77453125 105.94515625 230.8515625 106.8828125 C230.90054688 107.58148438 230.94953125 108.28015625 231 109 C231.66 109 232.32 109 233 109 C233 108.34 233 107.68 233 107 C233.99 107 234.98 107 236 107 C236.33 104.69 236.66 102.38 237 100 C237.99 100 238.98 100 240 100 C240 98.02 240 96.04 240 94 C241.485 93.505 241.485 93.505 243 93 C243.12375 92.236875 243.2475 91.47375 243.375 90.6875 C244 88 244 88 246 85 C246.40743465 82.4874863 246.74006728 80.02712363 247 77.5 C247.72972973 70.40540541 247.72972973 70.40540541 250 67 C251.53332291 73.33773468 252.48446121 79.50149789 253 86 C253.66 86 254.32 86 255 86 C255.28875 86.969375 255.5775 87.93875 255.875 88.9375 C256.64214682 92.10664203 256.64214682 92.10664203 259 93 C259.40729228 95.32156597 259.74438677 97.6568787 260 100 C260.66 100 261.32 100 262 100 C262.33 102.31 262.66 104.62 263 107 C264.32 107.33 265.64 107.66 267 108 C267.99 104.37 268.98 100.74 270 97 C270.66 97 271.32 97 272 97 C272 110.53 272 124.06 272 138 C272.66 138 273.32 138 274 138 C274 122.16 274 106.32 274 90 C275.65 90 277.3 90 279 90 C279 85.38 279 80.76 279 76 C285.6 76 292.2 76 299 76 C299 80.62 299 85.24 299 90 C300.65 90 302.3 90 304 90 C304 105.84 304 121.68 304 138 C308.95 138 313.9 138 319 138 C319.33 138.33 319.66 138.66 320 139 C320.33 129.43 320.66 119.86 321 110 C329.91 110 338.82 110 348 110 C348 116.6 348 123.2 348 130 C350.97 129.67 353.94 129.34 357 129 C358.6663197 128.96599348 360.33419981 128.94626451 362 129 C361.9175 127.9275 361.835 126.855 361.75 125.75 C362 122 362 122 363.375 119.625 C367.38479599 117.14274534 371.32990452 116.79374973 376 117 C379.45569245 118.29588467 381.41229415 119.41229415 384 122 C384.125 125.625 384.125 125.625 384 129 C385.32 129 386.64 129 388 129 C388 130.32 388 131.64 388 133 C388.66 133 389.32 133 390 133 C390 131.68 390 130.36 390 129 C390.66 129 391.32 129 392 129 C392 129.66 392 130.32 392 131 C398.27 131 404.54 131 411 131 C411 131.66 411 132.32 411 133 C412.65 133 414.3 133 416 133 C416 155.11 416 177.22 416 200 C417.65 200 419.3 200 421 200 C421 197.03 421 194.06 421 191 C421.66 191 422.32 191 423 191 C423 189.35 423 187.7 423 186 C424.32 186 425.64 186 427 186 C427 187.65 427 189.3 427 191 C428.32 191 429.64 191 431 191 C431 191.66 431 192.32 431 193 C433.31 193 435.62 193 438 193 C438 195.31 438 197.62 438 200 C439.32 200 440.64 200 442 200 C442 209.9 442 219.8 442 230 C166.45 230 -109.1 230 -393 230 C-393 217.46 -393 204.92 -393 192 C-391.35 192 -389.7 192 -388 192 C-388 187.71 -388 183.42 -388 179 C-383.71 179 -379.42 179 -375 179 C-375 165.47 -375 151.94 -375 138 C-374.01 138 -373.02 138 -372 138 C-372 135.03 -372 132.06 -372 129 C-368.18751574 128.97112764 -364.3750593 128.95324508 -360.5625 128.9375 C-359.47388672 128.92912109 -358.38527344 128.92074219 -357.26367188 128.91210938 C-356.22919922 128.90888672 -355.19472656 128.90566406 -354.12890625 128.90234375 C-352.69140015 128.89448853 -352.69140015 128.89448853 -351.22485352 128.88647461 C-349 129 -349 129 -348 130 C-347.85884839 132.67058851 -347.95752893 135.32432238 -348 138 C-347.01 138 -346.02 138 -345 138 C-345 151.53 -345 165.06 -345 179 C-342.36 179 -339.72 179 -337 179 C-337 183.29 -337 187.58 -337 192 C-335.68 192 -334.36 192 -333 192 C-333 173.52 -333 155.04 -333 136 C-331.68 136 -330.36 136 -329 136 C-329 132.7 -329 129.4 -329 126 C-327.35 126 -325.7 126 -324 126 C-324 121.71 -324 117.42 -324 113 C-321.69 113 -319.38 113 -317 113 C-317 101.45 -317 89.9 -317 78 C-313.968125 76.370625 -310.93625 74.74125 -307.8125 73.0625 C-306.39287964 72.29305054 -306.39287964 72.29305054 -304.94458008 71.50805664 C-304.18556396 71.10449951 -303.42654785 70.70094238 -302.64453125 70.28515625 C-301.87471924 69.87144775 -301.10490723 69.45773926 -300.31176758 69.03149414 C-298 68 -298 68 -293 67 C-293 81.52 -293 96.04 -293 111 C-288.71 111 -284.42 111 -280 111 C-280 123.21 -280 135.42 -280 148 C-277.69 148 -275.38 148 -273 148 C-273 144.37 -273 140.74 -273 137 C-267.39 136.67 -261.78 136.34 -256 136 C-256 133.69 -256 131.38 -256 129 C-255.01 129 -254.02 129 -253 129 C-253 126.69 -253 124.38 -253 122 C-252.34 122 -251.68 122 -251 122 C-251 118.7 -251 115.4 -251 112 C-247.67689517 113.16757737 -245.16638868 114.14948857 -243 117 C-243 117.99 -243 118.98 -243 120 C-241.35 120 -239.7 120 -238 120 C-238 118.68 -238 117.36 -238 116 C-236.35 116 -234.7 116 -233 116 C-233 114.68 -233 113.36 -233 112 C-226.4 112 -219.8 112 -213 112 C-213 113.32 -213 114.64 -213 116 C-211.35 116 -209.7 116 -208 116 C-207.67 117.32 -207.34 118.64 -207 120 C-205.02 120 -203.04 120 -201 120 C-201 122.97 -201 125.94 -201 129 C-200.01 129.33 -199.02 129.66 -198 130 C-198 143.2 -198 156.4 -198 170 C-196.68 170 -195.36 170 -194 170 C-194 156.14 -194 142.28 -194 128 C-192.68 128 -191.36 128 -190 128 C-190 126.68 -190 125.36 -190 124 C-189.34 124 -188.68 124 -188 124 C-188 123.01 -188 122.02 -188 121 C-187.34 121 -186.68 121 -186 121 C-186 120.01 -186 119.02 -186 118 C-185.01 118 -184.02 118 -183 118 C-183 117.01 -183 116.02 -183 115 C-182.34 115 -181.68 115 -181 115 C-180.92652344 113.84371094 -180.92652344 113.84371094 -180.8515625 112.6640625 C-180.77679688 111.66117187 -180.70203125 110.65828125 -180.625 109.625 C-180.52058594 108.12839844 -180.52058594 108.12839844 -180.4140625 106.6015625 C-180 104 -180 104 -178 102 C-176.19695845 107.30094216 -174.49276376 112.60308488 -173 118 C-172.34 118 -171.68 118 -171 118 C-171 118.99 -171 119.98 -171 121 C-170.01 121 -169.02 121 -168 121 C-168 121.99 -168 122.98 -168 124 C-167.34 124 -166.68 124 -166 124 C-166 125.32 -166 126.64 -166 128 C-164.68 128 -163.36 128 -162 128 C-162 141.86 -162 155.72 -162 170 C-159.69 170 -157.38 170 -155 170 C-155 158.78 -155 147.56 -155 136 C-154.01 136 -153.02 136 -152 136 C-152 133.69 -152 131.38 -152 129 C-151.34 129 -150.68 129 -150 129 C-150 126.69 -150 124.38 -150 122 C-149.34 122 -148.68 122 -148 122 C-148.0825 121.2575 -148.165 120.515 -148.25 119.75 C-148 117 -148 117 -146.03125 115.34375 C-143.19003365 112.06542344 -143.33062041 108.89828665 -143.25 104.75 C-143.22035156 104.00492187 -143.19070312 103.25984375 -143.16015625 102.4921875 C-143.0897657 100.66203328 -143.04258168 98.83101231 -143 97 C-142.01 97 -141.02 97 -140 97 C-140 105.25 -140 113.5 -140 122 C-139.34 122 -138.68 122 -138 122 C-138 119.03 -138 116.06 -138 113 C-137.34 113 -136.68 113 -136 113 C-136.02220612 112.34933563 -136.04441223 111.69867126 -136.06729126 111.02828979 C-136.28875549 104.24793505 -136.43943011 97.46860832 -136.54931641 90.68554688 C-136.59956721 88.15549997 -136.66778278 85.62574293 -136.75439453 83.09667969 C-136.87590926 79.45695605 -136.93244602 75.82107103 -136.9765625 72.1796875 C-137.02817535 71.05134491 -137.07978821 69.92300232 -137.13296509 68.76046753 C-137.1352575 65.54134559 -137.04936034 63.04709581 -136 60 C-133.54869659 57.84124568 -131.23736335 56.52763019 -128.26989746 55.17651367 C-125.68129643 54.1485872 -125.68129643 54.1485872 -124.8046875 51.0078125 C-124.82789063 50.05648437 -124.85109375 49.10515625 -124.875 48.125 C-124.87113281 46.67480469 -124.87113281 46.67480469 -124.8671875 45.1953125 C-124.91101563 44.47085938 -124.95484375 43.74640625 -125 43 C-124.01 43 -123.02 43 -122 43 C-122.03222656 43.73605469 -122.06445312 44.47210938 -122.09765625 45.23046875 C-122.06030013 48.37253333 -121.88813483 50.97864178 -121 54 C-118.27501243 56.42163002 -115.36348878 57.66754098 -112 59 C-110.33376422 60.66623578 -110.83259309 62.68758912 -110.79467773 64.97875977 C-110.77473251 66.03978409 -110.75478729 67.10080841 -110.73423767 68.19398499 C-110.70916893 69.92520851 -110.70916893 69.92520851 -110.68359375 71.69140625 C-110.66281265 72.86638168 -110.64203156 74.04135712 -110.62062073 75.25193787 C-110.55499876 79.02206324 -110.4961817 82.79226082 -110.4375 86.5625 C-110.3943268 89.11133573 -110.35071292 91.66016403 -110.30664062 94.20898438 C-110.19930455 100.47257892 -110.0975621 106.73624601 -110 113 C-109.195625 112.979375 -108.39125 112.95875 -107.5625 112.9375 C-105 113 -105 113 -104 114 C-103.90613619 115.8718094 -103.88256196 117.7471806 -103.88647461 119.62133789 C-103.88655014 120.82250748 -103.88662567 122.02367706 -103.88670349 123.26124573 C-103.89186478 124.5685112 -103.89702606 125.87577667 -103.90234375 127.22265625 C-103.90420802 128.56644132 -103.90563188 129.91022707 -103.90663147 131.25401306 C-103.91045598 134.79682277 -103.92028568 138.3395917 -103.93133545 141.88238525 C-103.94155101 145.49515227 -103.9461294 149.10792584 -103.95117188 152.72070312 C-103.96190802 159.8138188 -103.97898364 166.90690674 -104 174 C-102.02 174 -100.04 174 -98 174 C-97.99742187 174.88042969 -97.99484375 175.76085937 -97.9921875 176.66796875 C-98.01710521 183.16974524 -98.01710521 183.16974524 -95.59765625 188.9765625 C-93.80557541 190.48956369 -93.80557541 190.48956369 -91 192 C-90.20312198 184.52161939 -89.86727583 177.14650599 -89.859375 169.62890625 C-89.84105565 167.48631742 -89.82148615 165.34373898 -89.80078125 163.20117188 C-89.77184204 159.879294 -89.74999935 156.5580962 -89.74951172 153.23608398 C-89.72487687 129.44761816 -89.72487687 129.44761816 -84 120 C-80.7 120 -77.4 120 -74 120 C-74 114.72 -74 109.44 -74 104 C-73.34 104 -72.68 104 -72 104 C-72 121.16 -72 138.32 -72 156 C-69.36 156 -66.72 156 -64 156 C-64 152.04 -64 148.08 -64 144 C-63.34 144 -62.68 144 -62 144 C-62 142.35 -62 140.7 -62 139 C-61.34 139 -60.68 139 -60 139 C-60 137.68 -60 136.36 -60 135 C-57.36 135 -54.72 135 -52 135 C-52 136.32 -52 137.64 -52 139 C-51.34 139 -50.68 139 -50 139 C-50 140.65 -50 142.3 -50 144 C-49.34 144 -48.68 144 -48 144 C-47.67 120.24 -47.34 96.48 -47 72 C-32 72 -32 72 -27 73 C-26.67 69.37 -26.34 65.74 -26 62 C-19.07 62 -12.14 62 -5 62 C-5 66.95 -5 71.9 -5 77 C-3.35 77 -1.7 77 0 77 C0 51.59 0 26.18 0 0 Z " fill="#161617" transform="translate(393,0)"/>
<path d="M0 0 C0 14.52 0 29.04 0 44 C4.29 44 8.58 44 13 44 C13 56.21 13 68.42 13 81 C15.31 81 17.62 81 20 81 C20 77.37 20 73.74 20 70 C24.95 70 29.9 70 35 70 C35 80.89 35 91.78 35 103 C32.03 103 29.06 103 26 103 C26 105.31 26 107.62 26 110 C26.99 110 27.98 110 29 110 C29 110.99 29 111.98 29 113 C32.96 113 36.92 113 41 113 C41 124.22 41 135.44 41 147 C45.29 147 49.58 147 54 147 C53.88398438 146.00484375 53.76796875 145.0096875 53.6484375 143.984375 C52.61533648 130.65575758 57.36193807 121.32531045 64 110 C67.30388367 113.08934577 69.09929744 116.53505844 71.1875 120.5 C71.55552734 121.17675781 71.92355469 121.85351562 72.30273438 122.55078125 C75 127.62504348 75 127.62504348 75 131 C77.97 131 80.94 131 84 131 C84 125.39 84 119.78 84 114 C93.57142857 113.71428571 93.57142857 113.71428571 98 116 C98 117.32 98 118.64 98 120 C105.26 120 112.52 120 120 120 C120 125.28 120 130.56 120 136 C124.29 136 128.58 136 133 136 C133 139.63 133 143.26 133 147 C269.62 147 406.24 147 547 147 C547 138.75 547 130.5 547 122 C548.98 122 550.96 122 553 122 C552.95359375 120.98679687 552.9071875 119.97359375 552.859375 118.9296875 C552.82183242 117.57815468 552.78543494 116.22658972 552.75 114.875 C552.71648438 114.20984375 552.68296875 113.5446875 552.6484375 112.859375 C552.54724331 107.69847129 553.74640544 104.94633197 557 101 C559.03515625 99.13671875 559.03515625 99.13671875 561.0625 97.6875 C561.73410156 97.19636719 562.40570312 96.70523438 563.09765625 96.19921875 C568.88190908 92.55288278 576.42813891 93.52616676 583 94 C586.22212169 94.78429939 588.41028102 95.95176771 591 98 C592.00546875 98.73476562 592.00546875 98.73476562 593.03125 99.484375 C596.57981444 102.66681772 598.13008445 105.32998659 598.43359375 110.078125 C598.50808131 114.07030333 598.30428281 118.02017407 598 122 C599.98 122 601.96 122 604 122 C604 130.25 604 138.5 604 147 C621.16 147 638.32 147 656 147 C656 134.46 656 121.92 656 109 C660.29 109 664.58 109 669 109 C669 108.01 669 107.02 669 106 C670.32 106 671.64 106 673 106 C673 105.34 673 104.68 673 104 C669.37 104 665.74 104 662 104 C661.9690625 101.40125 661.9690625 101.40125 661.9375 98.75 C661.63224786 94.69788742 661.63224786 94.69788742 659.5859375 91.34375 C656.54548187 89.46857913 654.46521635 88.99069567 650.875 89.0625 C649.451875 89.5265625 649.451875 89.5265625 648 90 C647.071875 90.28875 646.14375 90.5775 645.1875 90.875 C642.41900311 93.56439698 642.61898483 94.85499828 642.36328125 98.6328125 C642.29020752 99.6345752 642.21713379 100.63633789 642.1418457 101.66845703 C642.09503662 102.43786621 642.04822754 103.20727539 642 104 C637.52084672 104.02886338 633.04171709 104.04675187 628.5625 104.0625 C627.28310547 104.07087891 626.00371094 104.07925781 624.68554688 104.08789062 C623.47060547 104.09111328 622.25566406 104.09433594 621.00390625 104.09765625 C619.87799072 104.10289307 618.7520752 104.10812988 617.59204102 104.11352539 C615 104 615 104 614 103 C613.90613619 101.1281906 613.88256196 99.2528194 613.88647461 97.37866211 C613.88655014 96.17749252 613.88662567 94.97632294 613.88670349 93.73875427 C613.89186478 92.4314888 613.89702606 91.12422333 613.90234375 89.77734375 C613.90420802 88.43355868 613.90563188 87.08977293 613.90663147 85.74598694 C613.91045598 82.20317723 613.92028568 78.6604083 613.93133545 75.11761475 C613.94155101 71.50484784 613.9461841 67.89207416 613.95117188 64.27929688 C613.96137782 57.18616187 613.98094949 50.09313893 614 43 C622.91 43 631.82 43 641 43 C641 49.6 641 56.2 641 63 C645.455 62.505 645.455 62.505 650 62 C651.6663197 61.96599348 653.33419981 61.94626451 655 62 C654.87625 60.39125 654.87625 60.39125 654.75 58.75 C655 55 655 55 656.375 52.625 C660.38479599 50.14274534 664.32990452 49.79374973 669 50 C672.45569245 51.29588467 674.41229415 52.41229415 677 55 C677.125 58.625 677.125 58.625 677 62 C678.32 62 679.64 62 681 62 C681 63.32 681 64.64 681 66 C681.66 66 682.32 66 683 66 C683 64.68 683 63.36 683 62 C683.66 62 684.32 62 685 62 C685 62.66 685 63.32 685 64 C691.27 64 697.54 64 704 64 C704 64.66 704 65.32 704 66 C705.65 66 707.3 66 709 66 C709 88.11 709 110.22 709 133 C710.65 133 712.3 133 714 133 C714 130.03 714 127.06 714 124 C714.66 124 715.32 124 716 124 C716 122.35 716 120.7 716 119 C717.32 119 718.64 119 720 119 C720 120.65 720 122.3 720 124 C721.32 124 722.64 124 724 124 C724 124.66 724 125.32 724 126 C726.31 126 728.62 126 731 126 C731 128.31 731 130.62 731 133 C732.32 133 733.64 133 735 133 C735 142.9 735 152.8 735 163 C459.45 163 183.9 163 -100 163 C-100 150.46 -100 137.92 -100 125 C-98.35 125 -96.7 125 -95 125 C-95 120.71 -95 116.42 -95 112 C-90.71 112 -86.42 112 -82 112 C-82 98.47 -82 84.94 -82 71 C-81.01 71 -80.02 71 -79 71 C-79 68.03 -79 65.06 -79 62 C-75.18751574 61.97112764 -71.3750593 61.95324508 -67.5625 61.9375 C-66.47388672 61.92912109 -65.38527344 61.92074219 -64.26367188 61.91210938 C-63.22919922 61.90888672 -62.19472656 61.90566406 -61.12890625 61.90234375 C-60.17056885 61.89710693 -59.21223145 61.89187012 -58.22485352 61.88647461 C-56 62 -56 62 -55 63 C-54.85884839 65.67058851 -54.95752893 68.32432238 -55 71 C-54.01 71 -53.02 71 -52 71 C-52 84.53 -52 98.06 -52 112 C-49.36 112 -46.72 112 -44 112 C-44 116.29 -44 120.58 -44 125 C-42.68 125 -41.36 125 -40 125 C-40 106.52 -40 88.04 -40 69 C-38.68 69 -37.36 69 -36 69 C-36 65.7 -36 62.4 -36 59 C-34.35 59 -32.7 59 -31 59 C-31 54.71 -31 50.42 -31 46 C-28.69 46 -26.38 46 -24 46 C-24 34.45 -24 22.9 -24 11 C-19.359375 8.5559375 -19.359375 8.5559375 -14.625 6.0625 C-13.65127441 5.54953369 -12.67754883 5.03656738 -11.67431641 4.50805664 C-10.90780762 4.10449951 -10.14129883 3.70094238 -9.3515625 3.28515625 C-8.56604004 2.87144775 -7.78051758 2.45773926 -6.97119141 2.03149414 C-3.08899408 0 -3.08899408 0 0 0 Z " fill="#434345" transform="translate(100,67)"/>
<path d="M0 0 C0.66 0 1.32 0 2 0 C2 8.58 2 17.16 2 26 C3.65 26 5.3 26 7 26 C7 17.42 7 8.84 7 0 C7.99 0 8.98 0 10 0 C10 8.58 10 17.16 10 26 C11.65 26 13.3 26 15 26 C16 27 16 27 16.11352539 29.86743164 C16.10567017 31.74483032 16.10567017 31.74483032 16.09765625 33.66015625 C16.0962413 34.32462265 16.09482635 34.98908905 16.09336853 35.6736908 C16.08775518 37.80333899 16.07520054 39.93288339 16.0625 42.0625 C16.05748671 43.50325369 16.05292351 44.94400903 16.04882812 46.38476562 C16.03778145 49.92321102 16.02050792 53.46159539 16 57 C17.65 57 19.3 57 21 57 C21.33 60.3 21.66 63.6 22 67 C23.92057292 66.25130208 25.84114583 65.50260417 27.76171875 64.75390625 C35.46836886 62.15812358 41.24229029 63 50 63 C50 76.2 50 89.4 50 103 C53.3 103 56.6 103 60 103 C60 98.05 60 93.1 60 88 C62.49505962 90.49505962 62.35948376 91.67328888 62.625 95.125 C62.73714844 96.49011719 62.73714844 96.49011719 62.8515625 97.8828125 C62.90054688 98.58148438 62.94953125 99.28015625 63 100 C63.66 100 64.32 100 65 100 C65 99.34 65 98.68 65 98 C65.99 98 66.98 98 68 98 C68.33 95.69 68.66 93.38 69 91 C69.99 91 70.98 91 72 91 C72 89.02 72 87.04 72 85 C72.99 84.67 73.98 84.34 75 84 C75.185625 82.8553125 75.185625 82.8553125 75.375 81.6875 C76 79 76 79 78 76 C78.40743465 73.4874863 78.74006728 71.02712363 79 68.5 C79.72972973 61.40540541 79.72972973 61.40540541 82 58 C83.53332291 64.33773468 84.48446121 70.50149789 85 77 C85.66 77 86.32 77 87 77 C87.433125 78.4540625 87.433125 78.4540625 87.875 79.9375 C88.64214682 83.10664203 88.64214682 83.10664203 91 84 C91.40729228 86.32156597 91.74438677 88.6568787 92 91 C92.66 91 93.32 91 94 91 C94.33 93.31 94.66 95.62 95 98 C96.32 98.33 97.64 98.66 99 99 C99.99 95.37 100.98 91.74 102 88 C102.66 88 103.32 88 104 88 C104 101.53 104 115.06 104 129 C104.66 129 105.32 129 106 129 C106 113.16 106 97.32 106 81 C107.65 81 109.3 81 111 81 C111 76.38 111 71.76 111 67 C117.6 67 124.2 67 131 67 C131 71.62 131 76.24 131 81 C132.65 81 134.3 81 136 81 C136 96.84 136 112.68 136 129 C140.95 129 145.9 129 151 129 C152 130 152 130 152.11352539 132.95922852 C152.10828857 134.25272217 152.10305176 135.54621582 152.09765625 136.87890625 C152.09553383 137.90889992 152.09553383 137.90889992 152.09336853 138.95970154 C152.08775479 141.16067801 152.07520007 143.36155409 152.0625 145.5625 C152.05748676 147.05143083 152.05292355 148.54036324 152.04882812 150.02929688 C152.03863021 153.68626805 152.01905779 157.34302117 152 161 C161.57 161.33 171.14 161.66 181 162 C181 158.37 181 154.74 181 151 C184.91356085 147.49129027 186.93066465 146.04138671 192.125 145.9375 C198.17241379 148.17241379 198.17241379 148.17241379 201 151 C201.52646999 154.80593927 201.27649342 158.12909207 201 162 C204.63 162 208.26 162 212 162 C212 162.66 212 163.32 212 164 C210.68 164 209.36 164 208 164 C208 164.99 208 165.98 208 167 C203.71 167 199.42 167 195 167 C195 179.54 195 192.08 195 205 C177.84 205 160.68 205 143 205 C143 196.75 143 188.5 143 180 C141.02 180 139.04 180 137 180 C137.00902344 178.9378125 137.01804687 177.875625 137.02734375 176.78125 C137.08339033 167.34155285 137.08339033 167.34155285 132.875 159.1875 C125.90367439 152.84611345 119.8568586 152.44229245 110.60546875 152.65234375 C104.22488803 153.26758935 100.24284865 155.32054296 96.0625 160.125 C93.00692724 164.38428324 92.7253887 167.50907615 92.4375 172.625 C92.39431641 173.33140625 92.35113281 174.0378125 92.30664062 174.765625 C92.20055249 176.51018537 92.09977111 178.25506697 92 180 C90.02 180 88.04 180 86 180 C86 188.25 86 196.5 86 205 C20.99 205 -44.02 205 -111 205 C-111 189.49 -111 173.98 -111 158 C-108.03 158 -105.06 158 -102 158 C-102 166.25 -102 174.5 -102 183 C-100.68 183 -99.36 183 -98 183 C-98 151.65 -98 120.3 -98 88 C-96.68 88 -95.36 88 -94 88 C-94 74.47 -94 60.94 -94 47 C-92.35 47 -90.7 47 -89 47 C-89 45.35 -89 43.7 -89 42 C-86.36 40.68 -83.72 39.36 -81 38 C-80.67 27.77 -80.34 17.54 -80 7 C-79.34 7 -78.68 7 -78 7 C-77.67 17.23 -77.34 27.46 -77 38 C-74.36 39.32 -71.72 40.64 -69 42 C-69 43.65 -69 45.3 -69 47 C-67.35 47 -65.7 47 -64 47 C-64 48.32 -64 49.64 -64 51 C-58.72 51 -53.44 51 -48 51 C-47.67 51.99 -47.34 52.98 -47 54 C-46.01 53.01 -46.01 53.01 -45 52 C-44.32944715 54.93666226 -43.66340947 57.87422359 -43 60.8125 C-42.80921875 61.64587891 -42.6184375 62.47925781 -42.421875 63.33789062 C-42.24140625 64.14033203 -42.0609375 64.94277344 -41.875 65.76953125 C-41.70742188 66.50792236 -41.53984375 67.24631348 -41.3671875 68.00708008 C-41 70 -41 70 -41 73 C-40.01 73 -39.02 73 -38 73 C-38 74.32 -38 75.64 -38 77 C-37.34 77 -36.68 77 -36 77 C-36 77.99 -36 78.98 -36 80 C-34.515 80.495 -34.515 80.495 -33 81 C-33 82.65 -33 84.3 -33 86 C-32.01 86 -31.02 86 -30 86 C-30 115.04 -30 144.08 -30 174 C-24.41855901 173.59468423 -24.41855901 173.59468423 -22.34516907 171.6027832 C-18.37002646 165.30024099 -18.26820182 159.50405129 -18.29296875 152.1875 C-18.27028679 150.37330566 -18.27028679 150.37330566 -18.24714661 148.52246094 C-18.20435799 144.68144965 -18.1954394 140.84122563 -18.1875 137 C-18.16434908 134.38669795 -18.13898252 131.77341452 -18.11132812 129.16015625 C-18.04856256 122.77342995 -18.0135586 116.38701021 -18 110 C-15.69 110 -13.38 110 -11 110 C-11 92.51 -11 75.02 -11 57 C-9.35 57 -7.7 57 -6 57 C-6 46.77 -6 36.54 -6 26 C-4.02 26 -2.04 26 0 26 C0 17.42 0 8.84 0 0 Z " fill="#39393B" transform="translate(561,9)"/>
<path d="M0 0 C275.55 0 551.1 0 835 0 C835 4.95 835 9.9 835 15 C559.45 15 283.9 15 0 15 C0 10.05 0 5.1 0 0 Z " fill="#000000" transform="translate(0,215)"/>
<path d="M0 0 C2.99628539 2.99628539 2.7249286 6.58493471 3.125 10.625 C3.21136719 11.42679688 3.29773438 12.22859375 3.38671875 13.0546875 C3.59896327 15.03563635 3.80049931 17.01772718 4 19 C4.66 19 5.32 19 6 19 C6.28875 19.969375 6.5775 20.93875 6.875 21.9375 C7.64214682 25.10664203 7.64214682 25.10664203 10 26 C10.40729228 28.32156597 10.74438677 30.6568787 11 33 C11.66 33 12.32 33 13 33 C13.495 36.465 13.495 36.465 14 40 C15.32 40.33 16.64 40.66 18 41 C19.485 35.555 19.485 35.555 21 30 C21.66 30 22.32 30 23 30 C23 43.53 23 57.06 23 71 C23.66 71 24.32 71 25 71 C25 55.16 25 39.32 25 23 C26.65 23 28.3 23 30 23 C30 18.38 30 13.76 30 9 C36.6 9 43.2 9 50 9 C50 13.62 50 18.24 50 23 C51.65 23 53.3 23 55 23 C55 38.84 55 54.68 55 71 C59.95 71 64.9 71 70 71 C71 72 71 72 71.11352539 74.95922852 C71.10567017 76.89946899 71.10567017 76.89946899 71.09765625 78.87890625 C71.0962413 79.5655687 71.09482635 80.25223114 71.09336853 80.95970154 C71.08775479 83.16067801 71.07520007 85.36155409 71.0625 87.5625 C71.05748676 89.05143083 71.05292355 90.54036324 71.04882812 92.02929688 C71.03863021 95.68626805 71.01905779 99.34302117 71 103 C80.57 103.33 90.14 103.66 100 104 C100 100.37 100 96.74 100 93 C103.91356085 89.49129027 105.93066465 88.04138671 111.125 87.9375 C117.17241379 90.17241379 117.17241379 90.17241379 120 93 C120.52646999 96.80593927 120.27649342 100.12909207 120 104 C123.63 104 127.26 104 131 104 C131 104.66 131 105.32 131 106 C129.68 106 128.36 106 127 106 C127 106.99 127 107.98 127 109 C122.71 109 118.42 109 114 109 C114 121.54 114 134.08 114 147 C96.84 147 79.68 147 62 147 C62 138.75 62 130.5 62 122 C60.02 122 58.04 122 56 122 C56.00902344 120.9378125 56.01804687 119.875625 56.02734375 118.78125 C56.08339033 109.34155285 56.08339033 109.34155285 51.875 101.1875 C44.90367439 94.84611345 38.8568586 94.44229245 29.60546875 94.65234375 C23.22488803 95.26758935 19.24284865 97.32054296 15.0625 102.125 C12.00692724 106.38428324 11.7253887 109.50907615 11.4375 114.625 C11.37272461 115.68460938 11.37272461 115.68460938 11.30664062 116.765625 C11.20055249 118.51018537 11.09977111 120.25506697 11 122 C9.02 122 7.04 122 5 122 C5 130.25 5 138.5 5 147 C-3.91 147 -12.82 147 -22 147 C-22 138.75 -22 130.5 -22 122 C-21.34 122 -20.68 122 -20 122 C-20.33 91.64 -20.66 61.28 -21 30 C-18.50494038 32.49505962 -18.64051624 33.67328888 -18.375 37.125 C-18.30023437 38.03507812 -18.22546875 38.94515625 -18.1484375 39.8828125 C-18.09945312 40.58148438 -18.05046875 41.28015625 -18 42 C-17.34 42 -16.68 42 -16 42 C-16 41.34 -16 40.68 -16 40 C-15.01 40 -14.02 40 -13 40 C-12.67 37.69 -12.34 35.38 -12 33 C-11.01 33 -10.02 33 -9 33 C-9 31.02 -9 29.04 -9 27 C-8.01 26.67 -7.02 26.34 -6 26 C-5.87625 25.236875 -5.7525 24.47375 -5.625 23.6875 C-5 21 -5 21 -3 18 C-2.56684635 15.48601022 -2.21463888 13.03039845 -1.9375 10.5 C-1.11189956 3.33569869 -1.11189956 3.33569869 0 0 Z " fill="#000000" transform="translate(642,67)"/>
<path d="M0 0 C0.66 0 1.32 0 2 0 C2 11.55 2 23.1 2 35 C2.66 35 3.32 35 4 35 C4 24.77 4 14.54 4 4 C4.99 4 5.98 4 7 4 C7 14.23 7 24.46 7 35 C16.14163228 34.60642964 16.14163228 34.60642964 25.27709961 34.09912109 C26.43218018 34.07414551 27.58726074 34.04916992 28.77734375 34.0234375 C29.94515381 33.97106934 31.11296387 33.91870117 32.31616211 33.86474609 C38.24946145 35.69321994 41.63233516 39.8936387 45 45 C46.1825943 49.15619872 46.14763362 53.0354775 46.02172852 57.33447266 C46.02369987 59.12156647 46.02369987 59.12156647 46.02571106 60.94476318 C46.02055007 64.1810416 45.97574007 67.41372039 45.91254544 70.64928865 C45.85590493 74.04169549 45.85096762 77.43418912 45.84031677 80.82699585 C45.81245259 87.23762302 45.73875142 93.64685259 45.64817137 100.056867 C45.54722908 107.36026821 45.49800488 114.66373968 45.45291245 121.96766591 C45.35908732 136.97923985 45.19917013 151.98942715 45 167 C40.71 167 36.42 167 32 167 C32 174.92 32 182.84 32 191 C27.38 191 22.76 191 18 191 C18 186.38 18 181.76 18 177 C10.41 177 2.82 177 -5 177 C-5 183.6 -5 190.2 -5 197 C-9.29 197 -13.58 197 -18 197 C-18 198.32 -18 199.64 -18 201 C-21.63 201 -25.26 201 -29 201 C-29.1953125 199.01432292 -29.390625 197.02864583 -29.5859375 195.04296875 C-29.92665391 192.70011858 -29.92665391 192.70011858 -32 190 C-32.2610788 186.97670744 -32.08815181 184.04123758 -32 181 C-27.05 181 -22.1 181 -17 181 C-17 185.29 -17 189.58 -17 194 C-15.68 194 -14.36 194 -13 194 C-13 186.08 -13 178.16 -13 170 C-8.71 170 -4.42 170 0 170 C0 113.9 0 57.8 0 0 Z " fill="#000000" transform="translate(393,0)"/>
<path d="M0 0 C0.16956514 29.25389913 -0.12892922 58.4989249 -0.5 87.75 C-0.51195782 88.69287621 -0.52391563 89.63575241 -0.53623581 90.60720062 C-0.68627874 102.40486117 -0.84100553 114.20245682 -1 126 C-0.01 126 0.98 126 2 126 C2 127.65 2 129.3 2 131 C-1.96 131 -5.92 131 -10 131 C-10 130.01 -10 129.02 -10 128 C-13.63 128 -17.26 128 -21 128 C-21 127.34 -21 126.68 -21 126 C-26.94 126 -32.88 126 -39 126 C-39 126.66 -39 127.32 -39 128 C-39.99 128 -40.98 128 -42 128 C-42 128.99 -42 129.98 -42 131 C-43.98 131 -45.96 131 -48 131 C-48 129.68 -48 128.36 -48 127 C-49.65 127 -51.3 127 -53 127 C-53 126.01 -53 125.02 -53 124 C-54.98 124 -56.96 124 -59 124 C-59 122.68 -59 121.36 -59 120 C-59.99 120 -60.98 120 -62 120 C-62 119.01 -62 118.02 -62 117 C-68.93 117 -75.86 117 -83 117 C-83 117.99 -83 118.98 -83 120 C-83.66 120 -84.32 120 -85 120 C-85 120.99 -85 121.98 -85 123 C-86.98 123 -88.96 123 -91 123 C-91 124.32 -91 125.64 -91 127 C-92.65 127 -94.3 127 -96 127 C-96 128.32 -96 129.64 -96 131 C-96.99 131 -97.98 131 -99 131 C-99 136.28 -99 141.56 -99 147 C-99.33 147 -99.66 147 -100 147 C-100 139.74 -100 132.48 -100 125 C-98.35 125 -96.7 125 -95 125 C-95 120.71 -95 116.42 -95 112 C-90.71 112 -86.42 112 -82 112 C-82 98.47 -82 84.94 -82 71 C-81.01 71 -80.02 71 -79 71 C-79 68.03 -79 65.06 -79 62 C-75.18751574 61.97112764 -71.3750593 61.95324508 -67.5625 61.9375 C-66.47388672 61.92912109 -65.38527344 61.92074219 -64.26367188 61.91210938 C-63.22919922 61.90888672 -62.19472656 61.90566406 -61.12890625 61.90234375 C-60.17056885 61.89710693 -59.21223145 61.89187012 -58.22485352 61.88647461 C-56 62 -56 62 -55 63 C-54.85884839 65.67058851 -54.95752893 68.32432238 -55 71 C-54.01 71 -53.02 71 -52 71 C-52 84.53 -52 98.06 -52 112 C-49.36 112 -46.72 112 -44 112 C-44 116.29 -44 120.58 -44 125 C-42.68 125 -41.36 125 -40 125 C-40 106.52 -40 88.04 -40 69 C-38.68 69 -37.36 69 -36 69 C-36 65.7 -36 62.4 -36 59 C-34.35 59 -32.7 59 -31 59 C-31 54.71 -31 50.42 -31 46 C-28.69 46 -26.38 46 -24 46 C-24 34.45 -24 22.9 -24 11 C-19.359375 8.5559375 -19.359375 8.5559375 -14.625 6.0625 C-13.65127441 5.54953369 -12.67754883 5.03656738 -11.67431641 4.50805664 C-10.90780762 4.10449951 -10.14129883 3.70094238 -9.3515625 3.28515625 C-8.56604004 2.87144775 -7.78051758 2.45773926 -6.97119141 2.03149414 C-3.08899408 0 -3.08899408 0 0 0 Z " fill="#000000" transform="translate(100,67)"/>
<path d="M0 0 C4.62 0 9.24 0 14 0 C14 12.21 14 24.42 14 37 C16.31 37 18.62 37 21 37 C21 33.37 21 29.74 21 26 C25.95 26 30.9 26 36 26 C36 36.89 36 47.78 36 59 C33.03 59 30.06 59 27 59 C27 61.31 27 63.62 27 66 C27.99 66 28.98 66 30 66 C30 66.99 30 67.98 30 69 C33.96 69 37.92 69 42 69 C42 80.22 42 91.44 42 103 C-4.2 103 -50.4 103 -98 103 C-98 97.72 -98 92.44 -98 87 C-97.01 87 -96.02 87 -95 87 C-95 85.68 -95 84.36 -95 83 C-93.35 83 -91.7 83 -90 83 C-90 81.68 -90 80.36 -90 79 C-88.02 79 -86.04 79 -84 79 C-84 78.01 -84 77.02 -84 76 C-83.34 76 -82.68 76 -82 76 C-82 75.01 -82 74.02 -82 73 C-75.07 73 -68.14 73 -61 73 C-61 73.99 -61 74.98 -61 76 C-60.01 76 -59.02 76 -58 76 C-58 77.32 -58 78.64 -58 80 C-56.02 80 -54.04 80 -52 80 C-52 80.99 -52 81.98 -52 83 C-50.35 83 -48.7 83 -47 83 C-47 84.32 -47 85.64 -47 87 C-45.02 87 -43.04 87 -41 87 C-41 86.01 -41 85.02 -41 84 C-40.01 84 -39.02 84 -38 84 C-38 83.34 -38 82.68 -38 82 C-32.06 82 -26.12 82 -20 82 C-20 82.66 -20 83.32 -20 84 C-16.37 84 -12.74 84 -9 84 C-9 84.99 -9 85.98 -9 87 C-5.04 87 -1.08 87 3 87 C3 85.35 3 83.7 3 82 C2.01 82 1.02 82 0 82 C0 54.94 0 27.88 0 0 Z " fill="#39393B" transform="translate(99,111)"/>
<path d="M0 0 C0.66 0 1.32 0 2 0 C2 8.58 2 17.16 2 26 C3.65 26 5.3 26 7 26 C7 17.42 7 8.84 7 0 C7.99 0 8.98 0 10 0 C10 8.58 10 17.16 10 26 C11.65 26 13.3 26 15 26 C16 27 16 27 16.11352539 29.86743164 C16.10828857 31.11903076 16.10305176 32.37062988 16.09765625 33.66015625 C16.0962413 34.32462265 16.09482635 34.98908905 16.09336853 35.6736908 C16.08775518 37.80333899 16.07520054 39.93288339 16.0625 42.0625 C16.05748671 43.50325369 16.05292351 44.94400903 16.04882812 46.38476562 C16.03778145 49.92321102 16.02050792 53.46159539 16 57 C17.65 57 19.3 57 21 57 C20.67 74.82 20.34 92.64 20 111 C22.31 111 24.62 111 27 111 C27 132.78 27 154.56 27 177 C19.08 177 11.16 177 3 177 C1.35 173.7 -0.3 170.4 -2 167 C-2.66 166.67 -3.32 166.34 -4 166 C-4 164.02 -4 162.04 -4 160 C-7.96 160 -11.92 160 -16 160 C-16 161.98 -16 163.96 -16 166 C-16.99 165.67 -17.98 165.34 -19 165 C-18.67 146.85 -18.34 128.7 -18 110 C-15.69 110 -13.38 110 -11 110 C-11 92.51 -11 75.02 -11 57 C-9.35 57 -7.7 57 -6 57 C-6 46.77 -6 36.54 -6 26 C-4.02 26 -2.04 26 0 26 C0 17.42 0 8.84 0 0 Z " fill="#000000" transform="translate(561,9)"/>
<path d="M0 0 C6.93 0 13.86 0 21 0 C21 4.95 21 9.9 21 15 C22.65 15 24.3 15 26 15 C26 45.69 26 76.38 26 108 C21.71 108 17.42 108 13 108 C13 115.92 13 123.84 13 132 C11.68 132 10.36 132 9 132 C9 127.71 9 123.42 9 119 C4.05 119 -0.9 119 -6 119 C-6 121.64 -6 124.28 -6 127 C-6.99 127 -7.98 127 -9 127 C-9 125.35 -9 123.7 -9 122 C-9.99 122 -10.98 122 -12 122 C-12 113.09 -12 104.18 -12 95 C-14.97 95 -17.94 95 -21 95 C-21 66.95 -21 38.9 -21 10 C-6 10 -6 10 -1 11 C-0.67 7.37 -0.34 3.74 0 0 Z " fill="#808184" transform="translate(367,62)"/>
<path d="M0 0 C0.66 0 1.32 0 2 0 C2.495 15.345 2.495 15.345 3 31 C5.64 32.32 8.28 33.64 11 35 C11 36.65 11 38.3 11 40 C12.65 40 14.3 40 16 40 C16 41.32 16 42.64 16 44 C21.28 44 26.56 44 32 44 C32.28571429 60 32.28571429 60 30 67 C29.34 67 28.68 67 28 67 C28 67.99 28 68.98 28 70 C27.01 70 26.02 70 25 70 C25 71.32 25 72.64 25 74 C24.34 74 23.68 74 23 74 C23 75.98 23 77.96 23 80 C21.68 80 20.36 80 19 80 C19 104.09 19 128.18 19 153 C16.69 153 14.38 153 12 153 C12.01160156 153.84304687 12.02320313 154.68609375 12.03515625 155.5546875 C12.04417969 156.65039062 12.05320312 157.74609375 12.0625 158.875 C12.07410156 159.96554688 12.08570313 161.05609375 12.09765625 162.1796875 C12 165 12 165 11 167 C10.77532169 168.53668865 10.59203195 170.07968054 10.4375 171.625 C10.35371094 172.44226563 10.26992188 173.25953125 10.18359375 174.1015625 C10.12300781 174.72804687 10.06242187 175.35453125 10 176 C9.34 176 8.68 176 8 176 C8 172.37 8 168.74 8 165 C6.35 165 4.7 165 3 165 C3 158.73 3 152.46 3 146 C2.01 146 1.02 146 0 146 C0 144.35 0 142.7 0 141 C-0.99 141 -1.98 141 -3 141 C-3 139.35 -3 137.7 -3 136 C-3.66 136 -4.32 136 -5 136 C-5 134.35 -5 132.7 -5 131 C-6.65 131 -8.3 131 -10 131 C-10 132.65 -10 134.3 -10 136 C-10.66 136 -11.32 136 -12 136 C-12 137.65 -12 139.3 -12 141 C-12.66 141 -13.32 141 -14 141 C-14 142.65 -14 144.3 -14 146 C-15.32 146 -16.64 146 -18 146 C-18 124.55 -18 103.1 -18 81 C-16.68 81 -15.36 81 -14 81 C-14 67.47 -14 53.94 -14 40 C-12.35 40 -10.7 40 -9 40 C-9 38.35 -9 36.7 -9 35 C-6.36 33.68 -3.72 32.36 -1 31 C-0.67 20.77 -0.34 10.54 0 0 Z " fill="#A5A7AA" transform="translate(481,16)"/>
<path d="M0 0 C0.99 0 1.98 0 3 0 C2.96777344 0.73605469 2.93554688 1.47210938 2.90234375 2.23046875 C2.93969987 5.37253333 3.11186517 7.97864178 4 11 C6.72498757 13.42163002 9.63651122 14.66754098 13 16 C14.66623578 17.66623578 14.16740691 19.68758912 14.20532227 21.97875977 C14.22526749 23.03978409 14.24521271 24.10080841 14.26576233 25.19398499 C14.28247482 26.348134 14.29918732 27.50228302 14.31640625 28.69140625 C14.33718735 29.86638168 14.35796844 31.04135712 14.37937927 32.25193787 C14.44500124 36.02206324 14.5038183 39.79226082 14.5625 43.5625 C14.6056732 46.11133573 14.64928708 48.66016403 14.69335938 51.20898438 C14.80069545 57.47257892 14.9024379 63.73624601 15 70 C15.804375 69.979375 16.60875 69.95875 17.4375 69.9375 C20 70 20 70 21 71 C21.09386381 72.8718094 21.11743804 74.7471806 21.11352539 76.62133789 C21.11344986 77.82250748 21.11337433 79.02367706 21.11329651 80.26124573 C21.10813522 81.5685112 21.10297394 82.87577667 21.09765625 84.22265625 C21.09579198 85.56644132 21.09436812 86.91022707 21.09336853 88.25401306 C21.08954402 91.79682277 21.07971432 95.3395917 21.06866455 98.88238525 C21.05844899 102.49515227 21.0538706 106.10792584 21.04882812 109.72070312 C21.03809198 116.81382039 21.02049572 123.90690325 21 131 C17.37 131 13.74 131 10 131 C10 137.6 10 144.2 10 151 C8.35 151 6.7 151 5 151 C5 143.41 5 135.82 5 128 C0.38 128 -4.24 128 -9 128 C-9 116.45 -9 104.9 -9 93 C-9.66 93 -10.32 93 -11 93 C-11 90.69 -11 88.38 -11 86 C-11.66 86 -12.32 86 -13 86 C-13 80.72 -13 75.44 -13 70 C-12.34 70 -11.68 70 -11 70 C-11.03330917 69.02400345 -11.03330917 69.02400345 -11.06729126 68.02828979 C-11.28875549 61.24793505 -11.43943011 54.46860832 -11.54931641 47.68554688 C-11.59956721 45.15549997 -11.66778278 42.62574293 -11.75439453 40.09667969 C-11.87590926 36.45695605 -11.93244602 32.82107103 -11.9765625 29.1796875 C-12.02817535 28.05134491 -12.07978821 26.92300232 -12.13296509 25.76046753 C-12.1352575 22.54134559 -12.04936034 20.04709581 -11 17 C-8.54869659 14.84124568 -6.23736335 13.52763019 -3.26989746 12.17651367 C-0.68129643 11.1485872 -0.68129643 11.1485872 0.1953125 8.0078125 C0.17210937 7.05648437 0.14890625 6.10515625 0.125 5.125 C0.12757813 4.15820312 0.13015625 3.19140625 0.1328125 2.1953125 C0.08898437 1.47085938 0.04515625 0.74640625 0 0 Z " fill="#7E7F83" transform="translate(268,43)"/>
<path d="M0 0 C8.91 0 17.82 0 27 0 C27 6.6 27 13.2 27 20 C29.97 19.67 32.94 19.34 36 19 C37.6663197 18.96599348 39.33419981 18.94626451 41 19 C40.9175 17.9275 40.835 16.855 40.75 15.75 C41 12 41 12 42.375 9.625 C46.38479599 7.14274534 50.32990452 6.79374973 55 7 C58.45569245 8.29588467 60.41229415 9.41229415 63 12 C63.125 15.625 63.125 15.625 63 19 C64.32 19 65.64 19 67 19 C66.67 32.2 66.34 45.4 66 59 C62.16432171 59.95891957 59.17718859 60.10177189 55.25 60.0625 C54.07953125 60.05347656 52.9090625 60.04445312 51.703125 60.03515625 C50.81109375 60.02355469 49.9190625 60.01195312 49 60 C49 56.7 49 53.4 49 50 C47.88625 49.566875 47.88625 49.566875 46.75 49.125 C44 48 44 48 42.0625 46.8125 C38.23856286 45.30610052 34.95960339 46.70145672 31.1875 47.875 C28.41900311 50.56439698 28.61898483 51.85499828 28.36328125 55.6328125 C28.29020752 56.6345752 28.21713379 57.63633789 28.1418457 58.66845703 C28.09503662 59.43786621 28.04822754 60.20727539 28 61 C23.52084672 61.02886338 19.04171709 61.04675187 14.5625 61.0625 C13.28310547 61.07087891 12.00371094 61.07925781 10.68554688 61.08789062 C9.47060547 61.09111328 8.25566406 61.09433594 7.00390625 61.09765625 C5.87799072 61.10289307 4.7520752 61.10812988 3.59204102 61.11352539 C1 61 1 61 0 60 C-0.09386381 58.1281906 -0.11743804 56.2528194 -0.11352539 54.37866211 C-0.11344986 53.17749252 -0.11337433 51.97632294 -0.11329651 50.73875427 C-0.10813522 49.4314888 -0.10297394 48.12422333 -0.09765625 46.77734375 C-0.09579198 45.43355868 -0.09436812 44.08977293 -0.09336853 42.74598694 C-0.08954402 39.20317723 -0.07971432 35.6604083 -0.06866455 32.11761475 C-0.05844899 28.50484784 -0.0538159 24.89207416 -0.04882812 21.27929688 C-0.03862218 14.18616187 -0.01905051 7.09313893 0 0 Z " fill="#808184" transform="translate(714,110)"/>
<path d="M0 0 C0 13.2 0 26.4 0 40 C3.3 40 6.6 40 10 40 C10 63.43 10 86.86 10 111 C7.07175348 108.07175348 5.72760033 105.7020007 4 102 C2.68 103.32 1.36 104.64 0 106 C0 98.74 0 91.48 0 84 C-1.98 84 -3.96 84 -6 84 C-6 82.02 -6 80.04 -6 78 C-10.29 78 -14.58 78 -19 78 C-19 89.88 -19 101.76 -19 114 C-20.32 114 -21.64 114 -23 114 C-23 92.22 -23 70.44 -23 48 C-25.31 48 -27.62 48 -30 48 C-30.14834893 42.09190886 -30.25721667 36.18490179 -30.32958984 30.27539062 C-30.35975867 28.26543292 -30.40070034 26.25560682 -30.45263672 24.24609375 C-30.52544912 21.35644084 -30.55945434 18.46852796 -30.5859375 15.578125 C-30.61690521 14.68007141 -30.64787292 13.78201782 -30.67977905 12.85675049 C-30.68108963 10.42589563 -30.62556356 8.34964339 -30 6 C-21.33680264 -1.58238735 -11.19749449 0 0 0 Z " fill="#A5A7AA" transform="translate(611,72)"/>
<path d="M0 0 C2.03983733 3.53867432 2.79624881 7.08198291 3.625 11.0625 C4.01558594 12.90521484 4.01558594 12.90521484 4.4140625 14.78515625 C5 18 5 18 5 21 C5.99 21 6.98 21 8 21 C8 22.32 8 23.64 8 25 C8.66 25 9.32 25 10 25 C10 25.99 10 26.98 10 28 C10.99 28.33 11.98 28.66 13 29 C13 30.65 13 32.3 13 34 C13.99 34 14.98 34 16 34 C16 63.04 16 92.08 16 122 C11.38 122 6.76 122 2 122 C1.05598958 120.20963542 0.11197917 118.41927083 -0.83203125 116.62890625 C-1.99019799 114.67732013 -1.99019799 114.67732013 -5 114 C-5 112.02 -5 110.04 -5 108 C-7.97 108 -10.94 108 -14 108 C-14 83.91 -14 59.82 -14 35 C-13.01 35 -12.02 35 -11 35 C-11 33.02 -11 31.04 -11 29 C-10.34 29 -9.68 29 -9 29 C-9 27.68 -9 26.36 -9 25 C-8.01 25 -7.02 25 -6 25 C-6 24.01 -6 23.02 -6 22 C-5.34 22 -4.68 22 -4 22 C-3.87882812 21.0821875 -3.75765625 20.164375 -3.6328125 19.21875 C-2.74164198 12.69263976 -1.77666013 6.34521474 0 0 Z " fill="#000000" transform="translate(515,61)"/>
<path d="M0 0 C0.66 0 1.32 0 2 0 C2 17.16 2 34.32 2 52 C4.64 52 7.28 52 10 52 C10 48.04 10 44.08 10 40 C10.66 40 11.32 40 12 40 C12 38.35 12 36.7 12 35 C12.66 35 13.32 35 14 35 C14 33.68 14 32.36 14 31 C16.64 31 19.28 31 22 31 C22 32.32 22 33.64 22 35 C22.66 35 23.32 35 24 35 C24 36.65 24 38.3 24 40 C24.66 40 25.32 40 26 40 C26.495 45.94 26.495 45.94 27 52 C29.97 52.33 32.94 52.66 36 53 C36 61.91 36 70.82 36 80 C34.02 80 32.04 80 30 80 C30 81.65 30 83.3 30 85 C29.01 85 28.02 85 27 85 C26.690625 85.804375 26.38125 86.60875 26.0625 87.4375 C25 90 25 90 24 91 C21.35673995 91.20696667 18.7716971 91.32436753 16.125 91.375 C15.02478516 91.43107422 15.02478516 91.43107422 13.90234375 91.48828125 C11.7578125 91.5234375 11.7578125 91.5234375 8 91 C6.1796875 88.5390625 6.1796875 88.5390625 5 86 C3.515 85.505 3.515 85.505 2 85 C2 83.35 2 81.7 2 80 C-0.97 80 -3.94 80 -7 80 C-7 81.65 -7 83.3 -7 85 C-7.99 85 -8.98 85 -10 85 C-10.433125 86.1446875 -10.433125 86.1446875 -10.875 87.3125 C-12 90 -12 90 -14 93 C-16 91 -16 91 -16.2361908 88.44851685 C-16.2290657 87.36996429 -16.22194061 86.29141174 -16.21459961 85.18017578 C-16.21056625 83.95775177 -16.2065329 82.73532776 -16.20237732 81.4758606 C-16.18663871 80.13233323 -16.16993564 78.78881687 -16.15234375 77.4453125 C-16.13885357 76.06444479 -16.12555591 74.68357519 -16.11244202 73.30270386 C-16.08191057 70.39892184 -16.0425425 67.49540036 -15.99829102 64.59179688 C-15.94366348 60.90262434 -15.92040035 57.21400954 -15.9054327 53.52449226 C-15.88851891 50.66539604 -15.8493628 47.80689699 -15.80444527 44.9481163 C-15.77805158 42.93675331 -15.77384422 40.92513768 -15.77024841 38.91360474 C-15.59091103 30.297037 -13.90227168 23.69086274 -10 16 C-6.7 16 -3.4 16 0 16 C0 10.72 0 5.44 0 0 Z " fill="#000000" transform="translate(319,104)"/>
<path d="M0 0 C0.66 0 1.32 0 2 0 C2 0.66 2 1.32 2 2 C8.27 2 14.54 2 21 2 C21 2.66 21 3.32 21 4 C22.65 4 24.3 4 26 4 C26 26.11 26 48.22 26 71 C27.65 71 29.3 71 31 71 C31 68.03 31 65.06 31 62 C31.66 62 32.32 62 33 62 C33 60.35 33 58.7 33 57 C34.32 57 35.64 57 37 57 C37 58.65 37 60.3 37 62 C38.32 62 39.64 62 41 62 C41 62.66 41 63.32 41 64 C43.31 64 45.62 64 48 64 C48 66.31 48 68.62 48 71 C49.32 71 50.64 71 52 71 C52 75.62 52 80.24 52 85 C40.12 85 28.24 85 16 85 C16 72.46 16 59.92 16 47 C11.71 47 7.42 47 3 47 C3 45.68 3 44.36 3 43 C1.68 43 0.36 43 -1 43 C-2.25282725 39.24151826 -2.12381835 35.74509081 -2.09765625 31.83203125 C-2.0962413 31.03721848 -2.09482635 30.2424057 -2.09336853 29.42350769 C-2.08777378 26.88646675 -2.07522228 24.34951425 -2.0625 21.8125 C-2.05748432 20.09179815 -2.05292153 18.37109492 -2.04882812 16.65039062 C-2.03780607 12.4335597 -2.02054506 8.21679484 -2 4 C-1.34 4 -0.68 4 0 4 C0 2.68 0 1.36 0 0 Z " fill="#000000" transform="translate(783,129)"/>
<path d="M0 0 C5.94 0 11.88 0 18 0 C18 4.29 18 8.58 18 13 C19.65 13 21.3 13 23 13 C23.02322232 23.92718269 23.04096539 34.85435946 23.05181217 45.78156185 C23.0570194 50.85609245 23.06407767 55.9306061 23.07543945 61.00512695 C23.08634528 65.9069644 23.09229309 70.80878559 23.09487724 75.71063423 C23.09671766 77.57601744 23.10031144 79.4413998 23.10573006 81.30677605 C23.11304274 83.9297156 23.11398666 86.55258892 23.11352539 89.17553711 C23.11712067 89.9379924 23.12071594 90.70044769 23.12442017 91.48600769 C23.11452304 96.72430523 22.64898541 101.80122567 22 107 C21.34 107 20.68 107 20 107 C20 103.37 20 99.74 20 96 C18.35 96 16.7 96 15 96 C15 89.73 15 83.46 15 77 C14.01 77 13.02 77 12 77 C12 75.35 12 73.7 12 72 C11.01 72 10.02 72 9 72 C9 70.35 9 68.7 9 67 C8.34 67 7.68 67 7 67 C7 65.35 7 63.7 7 62 C5.35 62 3.7 62 2 62 C2 63.65 2 65.3 2 67 C1.34 67 0.68 67 0 67 C0 68.65 0 70.3 0 72 C-0.66 72 -1.32 72 -2 72 C-2 73.65 -2 75.3 -2 77 C-3.32 77 -4.64 77 -6 77 C-6 55.55 -6 34.1 -6 12 C-3.03 12.495 -3.03 12.495 0 13 C0 8.71 0 4.42 0 0 Z " fill="#7F8083" transform="translate(469,85)"/>
<path d="M0 0 C6.6 0 13.2 0 20 0 C20 1.32 20 2.64 20 4 C21.65 4 23.3 4 25 4 C25.495 5.98 25.495 5.98 26 8 C27.98 8 29.96 8 32 8 C32 10.97 32 13.94 32 17 C32.99 17.33 33.98 17.66 35 18 C35 31.2 35 44.4 35 58 C34.01 58.495 34.01 58.495 33 59 C33.00902344 58.25234375 33.01804688 57.5046875 33.02734375 56.734375 C33.03048706 51.13753863 33.03048706 51.13753863 30.5859375 46.34375 C27.54548187 44.46857913 25.46521635 43.99069567 21.875 44.0625 C20.92625 44.371875 19.9775 44.68125 19 45 C17.6078125 45.433125 17.6078125 45.433125 16.1875 45.875 C12.46247597 49.49359478 13.1777111 53.96485213 13 59 C7.39 59 1.78 59 -4 59 C-4 47.45 -4 35.9 -4 24 C-4.66 24 -5.32 24 -6 24 C-6 21.69 -6 19.38 -6 17 C-6.99 17 -7.98 17 -9 17 C-9 14.69 -9 12.38 -9 10 C-9.66 10 -10.32 10 -11 10 C-11 9.34 -11 8.68 -11 8 C-9.02 8 -7.04 8 -5 8 C-5 6.68 -5 5.36 -5 4 C-3.35 4 -1.7 4 0 4 C0 2.68 0 1.36 0 0 Z " fill="#7E7F82" transform="translate(160,112)"/>
<path d="M0 0 C3.30388367 3.08934577 5.09929744 6.53505844 7.1875 10.5 C7.55552734 11.17675781 7.92355469 11.85351562 8.30273438 12.55078125 C11 17.62504348 11 17.62504348 11 21 C13.97 21 16.94 21 20 21 C20 15.39 20 9.78 20 4 C29.57142857 3.71428571 29.57142857 3.71428571 34 6 C34 7.32 34 8.64 34 10 C41.26 10 48.52 10 56 10 C56 15.28 56 20.56 56 26 C60.29 26 64.58 26 69 26 C69 29.63 69 33.26 69 37 C42.93 37 16.86 37 -10 37 C-10 17.44425676 -10 17.44425676 -5 8.9375 C-4.52304688 8.06029297 -4.04609375 7.18308594 -3.5546875 6.27929688 C-2.40014439 4.16648298 -1.21738984 2.07700952 0 0 Z " fill="#39393B" transform="translate(164,177)"/>
<path d="M0 0 C0.33 0 0.66 0 1 0 C1.33 12.54 1.66 25.08 2 38 C3.32 38 4.64 38 6 38 C6 39.32 6 40.64 6 42 C10.29 42 14.58 42 19 42 C19 54.54 19 67.08 19 80 C4.81 80 -9.38 80 -24 80 C-24 67.46 -24 54.92 -24 42 C-19.71 42 -15.42 42 -11 42 C-11 41.01 -11 40.02 -11 39 C-9.68 39 -8.36 39 -7 39 C-7 38.34 -7 37.68 -7 37 C-10.63 37 -14.26 37 -18 37 C-18 33.37 -18 29.74 -18 26 C-17.67 26 -17.34 26 -17 26 C-17 29.3 -17 32.6 -17 36 C-8.585 35.505 -8.585 35.505 0 35 C0 23.45 0 11.9 0 0 Z " fill="#39393B" transform="translate(780,134)"/>
<path d="M0 0 C6.6 0 13.2 0 20 0 C20 4.62 20 9.24 20 14 C21.65 14 23.3 14 25 14 C25 30.17 25 46.34 25 63 C15.1 63 5.2 63 -5 63 C-5 46.83 -5 30.66 -5 14 C-3.35 14 -1.7 14 0 14 C0 9.38 0 4.76 0 0 Z " fill="#808184" transform="translate(672,76)"/>
<path d="M0 0 C4.62 0 9.24 0 14 0 C14 12.21 14 24.42 14 37 C16.31 37 18.62 37 21 37 C21 33.37 21 29.74 21 26 C25.95 26 30.9 26 36 26 C36 36.89 36 47.78 36 59 C31.545 59.495 31.545 59.495 27 60 C26.67 60.99 26.34 61.98 26 63 C25.01 63 24.02 63 23 63 C23 64.98 23 66.96 23 69 C22.67 69 22.34 69 22 69 C22 67.02 22 65.04 22 63 C20.68 63 19.36 63 18 63 C18 63.99 18 64.98 18 66 C17.01 66 16.02 66 15 66 C15 66.99 15 67.98 15 69 C11.04 69 7.08 69 3 69 C3 72.96 3 76.92 3 81 C2.01 81 1.02 81 0 81 C0 54.27 0 27.54 0 0 Z " fill="#7F8083" transform="translate(99,111)"/>
<path d="M0 0 C1.65 0 3.3 0 5 0 C5 1.65 5 3.3 5 5 C5.66 5 6.32 5 7 5 C7 6.65 7 8.3 7 10 C7.99 10 8.98 10 10 10 C10 11.65 10 13.3 10 15 C10.99 15 11.98 15 13 15 C13 21.27 13 27.54 13 34 C14.65 34 16.3 34 18 34 C18 37.63 18 41.26 18 45 C13.38 45 8.76 45 4 45 C4 52.26 4 59.52 4 67 C-4.25 67 -12.5 67 -21 67 C-21 51.49 -21 35.98 -21 20 C-18.03 20 -15.06 20 -12 20 C-12 28.25 -12 36.5 -12 45 C-10.68 45 -9.36 45 -8 45 C-8 35.1 -8 25.2 -8 15 C-6.68 15 -5.36 15 -4 15 C-4 13.35 -4 11.7 -4 10 C-3.34 10 -2.68 10 -2 10 C-2 8.35 -2 6.7 -2 5 C-1.34 5 -0.68 5 0 5 C0 3.35 0 1.7 0 0 Z " fill="#010101" transform="translate(471,147)"/>
<path d="M0 0 C3.81248426 -0.02887236 7.6249407 -0.04675492 11.4375 -0.0625 C12.52611328 -0.07087891 13.61472656 -0.07925781 14.73632812 -0.08789062 C15.77080078 -0.09111328 16.80527344 -0.09433594 17.87109375 -0.09765625 C18.82943115 -0.10289307 19.78776855 -0.10812988 20.77514648 -0.11352539 C23 0 23 0 24 1 C24.14115161 3.67058851 24.04247107 6.32432238 24 9 C24.99 9 25.98 9 27 9 C27 22.53 27 36.06 27 50 C17.1 50 7.2 50 -3 50 C-3 36.47 -3 22.94 -3 9 C-2.01 9 -1.02 9 0 9 C0 6.03 0 3.06 0 0 Z " fill="#808184" transform="translate(21,129)"/>
<path d="M0 0 C15 0 15 0 22 2 C22 2.99 22 3.98 22 5 C19.36 5 16.72 5 14 5 C14 41.63 14 78.26 14 116 C13.67 114.68 13.34 113.36 13 112 C11.68 112 10.36 112 9 112 C9 103.09 9 94.18 9 85 C6.03 85 3.06 85 0 85 C0 56.95 0 28.9 0 0 Z " fill="#A6A8AB" transform="translate(346,72)"/>
<path d="M0 0 C0.99 0 1.98 0 3 0 C2.96777344 0.73605469 2.93554688 1.47210938 2.90234375 2.23046875 C2.93969987 5.37253333 3.11186517 7.97864178 4 11 C6.72498757 13.42163002 9.63651122 14.66754098 13 16 C14 17 14 17 14.11352539 20.96899414 C14.1133662 22.74105607 14.10766785 24.5131226 14.09765625 26.28515625 C14.0962413 27.21597519 14.09482635 28.14679413 14.09336853 29.1058197 C14.08775172 32.09141191 14.0751964 35.07693029 14.0625 38.0625 C14.05748716 40.08137913 14.05292388 42.10025943 14.04882812 44.11914062 C14.03862587 49.07947871 14.01905382 54.0396563 14 59 C7.73 59 1.46 59 -5 59 C-5 62.96 -5 66.92 -5 71 C-7.64 71 -10.28 71 -13 71 C-12.01 70.505 -12.01 70.505 -11 70 C-11.03330917 69.02400345 -11.03330917 69.02400345 -11.06729126 68.02828979 C-11.28875549 61.24793505 -11.43943011 54.46860832 -11.54931641 47.68554688 C-11.59956721 45.15549997 -11.66778278 42.62574293 -11.75439453 40.09667969 C-11.87590926 36.45695605 -11.93244602 32.82107103 -11.9765625 29.1796875 C-12.02817535 28.05134491 -12.07978821 26.92300232 -12.13296509 25.76046753 C-12.1352575 22.54134559 -12.04936034 20.04709581 -11 17 C-8.54869659 14.84124568 -6.23736335 13.52763019 -3.26989746 12.17651367 C-0.68129643 11.1485872 -0.68129643 11.1485872 0.1953125 8.0078125 C0.17210937 7.05648437 0.14890625 6.10515625 0.125 5.125 C0.12757813 4.15820312 0.13015625 3.19140625 0.1328125 2.1953125 C0.08898437 1.47085938 0.04515625 0.74640625 0 0 Z " fill="#A5A7AB" transform="translate(268,43)"/>
<path d="M0 0 C2.61060006 3.2000904 2.32366362 5.35889835 1.9375 9.375 C3.2575 9.375 4.5775 9.375 5.9375 9.375 C5.6075 22.575 5.2775 35.775 4.9375 49.375 C1.10182171 50.33391957 -1.88531141 50.47677189 -5.8125 50.4375 C-6.98296875 50.42847656 -8.1534375 50.41945312 -9.359375 50.41015625 C-10.25140625 50.39855469 -11.1434375 50.38695312 -12.0625 50.375 C-12.0625 47.075 -12.0625 43.775 -12.0625 40.375 C-13.17625 39.941875 -13.17625 39.941875 -14.3125 39.5 C-16.6073282 38.56120664 -18.84483105 37.48383447 -21.0625 36.375 C-21.0625 28.125 -21.0625 19.875 -21.0625 11.375 C-22.3825 11.045 -23.7025 10.715 -25.0625 10.375 C-25.0625 10.045 -25.0625 9.715 -25.0625 9.375 C-23.4125 9.375 -21.7625 9.375 -20.0625 9.375 C-20.18625 7.76625 -20.18625 7.76625 -20.3125 6.125 C-20.0625 2.375 -20.0625 2.375 -18.3125 0 C-12.7769297 -3.99791188 -5.7936027 -3.07415654 0 0 Z " fill="#A6A8AB" transform="translate(775.0625,119.625)"/>
<path d="M0 0 C0.66 0 1.32 0 2 0 C2 17.49 2 34.98 2 53 C1.34 53 0.68 53 0 53 C0 61.25 0 69.5 0 78 C-10.83984375 78.09765625 -10.83984375 78.09765625 -14 78 C-15.58493023 76.41506977 -15.15887835 74.77817716 -15.19287109 72.57885742 C-15.20893402 71.63664841 -15.22499695 70.69443939 -15.24154663 69.72367859 C-15.28612054 65.36535286 -15.32715002 61.00718291 -15.35009766 56.64868164 C-15.36655827 54.36081704 -15.39371493 52.0730017 -15.43212891 49.78540039 C-15.83946065 25.400397 -15.83946065 25.400397 -10 16 C-6.7 16 -3.4 16 0 16 C0 10.72 0 5.44 0 0 Z " fill="#808185" transform="translate(319,104)"/>
<path d="M0 0 C8.3715604 0.53711339 17.89434031 1.26289354 25 6 C30.74840086 6.93806921 35.65828088 5.93471141 41.0625 3.9375 C46.61660113 1.90673693 50.23918337 1.67784536 56 3 C56.495 3.99 56.495 3.99 57 5 C52.96437378 10.23136733 48.17161209 11.57035827 41.9609375 13.49609375 C38.26289086 15.37438921 37.47246605 17.20396164 36 21 C34.68 21 33.36 21 32 21 C32 22.32 32 23.64 32 25 C30.56570999 25.67354499 29.12742943 26.33859701 27.6875 27 C26.48673828 27.556875 26.48673828 27.556875 25.26171875 28.125 C23 29 23 29 20 29 C20.309375 28.2575 20.61875 27.515 20.9375 26.75 C21.81160747 24.4876042 22.44256673 22.35025921 23 20 C19.72547084 20.58516842 16.45633359 21.19637304 13.1875 21.8125 C12.25873047 21.97814453 11.32996094 22.14378906 10.37304688 22.31445312 C9.48037109 22.48525391 8.58769531 22.65605469 7.66796875 22.83203125 C6.84578857 22.98389893 6.0236084 23.1357666 5.17651367 23.29223633 C2.73444604 24.08635344 1.64208713 25.06061845 0 27 C-4.02779388 25.65740204 -4.93053548 23.61006649 -7.05859375 20.078125 C-8 18 -8 18 -7.8125 15 C-7.544375 14.34 -7.27625 13.68 -7 13 C-5.865625 13.144375 -4.73125 13.28875 -3.5625 13.4375 C-2.47001953 13.56898437 -2.47001953 13.56898437 -1.35546875 13.703125 C0.20732672 13.90009425 1.76755788 14.11868122 3.32421875 14.359375 C8.13356807 15.04525843 11.41862248 14.99701071 16 13 C14.7625 12.071875 14.7625 12.071875 13.5 11.125 C12.2625 10.073125 12.2625 10.073125 11 9 C11 8.34 11 7.68 11 7 C10.113125 6.731875 9.22625 6.46375 8.3125 6.1875 C5.2090334 5.0749365 2.68889315 3.89804222 0 2 C0 1.34 0 0.68 0 0 Z " fill="#A4A6A9" transform="translate(156,27)"/>
<path d="M0 0 C6.6 0 13.2 0 20 0 C20 1.32 20 2.64 20 4 C21.65 4 23.3 4 25 4 C25 4.99 25 5.98 25 7 C21.37 7 17.74 7 14 7 C14 10.3 14 13.6 14 17 C11.03 17.33 8.06 17.66 5 18 C5 31.2 5 44.4 5 58 C2.36 58 -0.28 58 -3 58 C-3 46.78 -3 35.56 -3 24 C-3.99 24 -4.98 24 -6 24 C-6 21.69 -6 19.38 -6 17 C-6.99 17 -7.98 17 -9 17 C-9 14.69 -9 12.38 -9 10 C-9.66 10 -10.32 10 -11 10 C-11 9.34 -11 8.68 -11 8 C-9.02 8 -7.04 8 -5 8 C-5 6.68 -5 5.36 -5 4 C-3.35 4 -1.7 4 0 4 C0 2.68 0 1.36 0 0 Z " fill="#A6A8AB" transform="translate(160,112)"/>
<path d="M0 0 C4.29 0 8.58 0 13 0 C13 2.31 13 4.62 13 7 C14.65 7 16.3 7 18 7 C18.02927916 10.99998437 18.04689219 14.99994076 18.0625 19 C18.07087891 20.12535156 18.07925781 21.25070313 18.08789062 22.41015625 C18.10533416 28.37584397 17.91781223 34.10287573 17 40 C12.38 40 7.76 40 3 40 C3 38.68 3 37.36 3 36 C2.01 36 1.02 36 0 36 C0 24.12 0 12.24 0 0 Z " fill="#000000" transform="translate(592,150)"/>
<path d="M0 0 C4.95 0 9.9 0 15 0 C15 4.95 15 9.9 15 15 C19.62 15 24.24 15 29 15 C29 24.24 29 33.48 29 43 C28.01 42.34 27.02 41.68 26 41 C25.01 42.32 24.02 43.64 23 45 C23 37.74 23 30.48 23 23 C21.02 23 19.04 23 17 23 C17 21.02 17 19.04 17 17 C12.71 17 8.42 17 4 17 C4 28.88 4 40.76 4 53 C2.68 53 1.36 53 0 53 C0 35.51 0 18.02 0 0 Z " fill="#7F8083" transform="translate(588,133)"/>
<path d="M0 0 C1.4540625 0.0309375 1.4540625 0.0309375 2.9375 0.0625 C2.9375 3.0325 2.9375 6.0025 2.9375 9.0625 C3.5975 9.3925 4.2575 9.7225 4.9375 10.0625 C1.9675 10.0625 -1.0025 10.0625 -4.0625 10.0625 C-4.16015625 3.12890625 -4.16015625 3.12890625 -4.0625 1.0625 C-3.0625 0.0625 -3.0625 0.0625 0 0 Z " fill="#A0A2A5" transform="translate(189.0625,119.9375)"/>
<path d="M0 0 C1.98 0 3.96 0 6 0 C6 1.65 6 3.3 6 5 C5.01 5.33 4.02 5.66 3 6 C2.01 6.99 1.02 7.98 0 9 C0 6.03 0 3.06 0 0 Z " fill="#070707" transform="translate(493,170)"/>
</svg>
