<svg xmlns="http://www.w3.org/2000/svg" viewBox="0 0 32 32">
  <style>
    :root {
      --icon-paper: oklch(0.24 0.055 228);
      --icon-ink: oklch(0.965 0.018 84);
      --icon-muted: oklch(0.78 0.03 225);
    }
  </style>
  <rect width="32" height="32" rx="7" fill="var(--icon-paper)"/>
  <circle cx="15.5" cy="15.5" r="10.5" fill="none" stroke="var(--icon-ink)" stroke-width="1.8"/>
  <path d="M9.5 15.5h12M15.5 5c3 3 4.5 6.5 4.5 10.5S18.5 23 15.5 26c-3-3-4.5-6.5-4.5-10.5S12.5 8 15.5 5" fill="none" stroke="var(--icon-muted)" stroke-width="1" stroke-linecap="round"/>
  <path d="m15.5 10 7 3.5-7 3.5-7-3.5 7-3.5Z" fill="var(--icon-ink)"/>
  <path d="M11.5 15.5V19c2.5 1.5 5.5 1.5 8 0v-3.5" fill="var(--icon-ink)"/>
  <path d="M4.5 22c6 4 16 3 22-3.5" fill="none" stroke="var(--icon-muted)" stroke-width="2" stroke-linecap="round"/>
  <path d="m25 17.5 3.5-1-1 3.5-2.5-2.5Z" fill="var(--icon-muted)"/>
</svg>
