<?xml version="1.0" encoding="UTF-8"?>
<svg id="Layer_1" data-name="Layer 1" xmlns="http://www.w3.org/2000/svg" viewBox="0 0 500 500">
  <defs>
    <style>
      .cls-1 {
        fill: #1d9e75;
      }

      .cls-2 {
        fill: #52514e;
      }

      .cls-3 {
        isolation: isolate;
      }

      .cls-4 {
        fill: #085041;
      }

      .cls-5 {
        fill: #0b0b0b;
      }

      .cls-6 {
        fill: #093024;
      }
    </style>
  </defs>
  <g class="cls-3">
    <path class="cls-5" d="m159.89,349.11l12.98-40.49h16.53l13.42,40.49h-10.65l-10.43-33.28,2.94,1.11h-7.32l3-1.11-10.15,33.28h-10.32Zm10.59-9.37l3.11-8.43h15.37l3.11,8.43h-21.58Z"/>
    <path class="cls-5" d="m218.96,350.1c-4.44,0-7.93-.92-10.48-2.75-2.55-1.83-3.92-4.41-4.1-7.74h8.88c.15.92.72,1.72,1.72,2.39,1,.67,2.4,1,4.22,1,1.29,0,2.41-.19,3.36-.58.94-.39,1.41-1.03,1.41-1.91,0-.78-.37-1.41-1.11-1.91-.74-.5-2.09-.84-4.05-1.03l-2.11-.22c-3.92-.41-6.8-1.48-8.65-3.22-1.85-1.74-2.77-3.92-2.77-6.54,0-2.26.55-4.11,1.66-5.58,1.11-1.46,2.64-2.56,4.6-3.3,1.96-.74,4.2-1.11,6.71-1.11,4.1,0,7.41.9,9.93,2.69,2.51,1.79,3.85,4.37,3.99,7.74h-8.88c-.15-.92-.65-1.71-1.5-2.36-.85-.65-2.07-.97-3.66-.97-1.15,0-2.08.2-2.8.61-.72.41-1.08.98-1.08,1.72,0,.78.34,1.35,1.03,1.72.68.37,1.78.65,3.3.83l2.11.22c3.92.41,6.94,1.49,9.07,3.24,2.13,1.76,3.19,4.06,3.19,6.91,0,2.11-.56,3.92-1.69,5.44-1.13,1.52-2.74,2.68-4.83,3.5-2.09.81-4.58,1.22-7.46,1.22Z"/>
    <path class="cls-5" d="m237.99,360.2v-41.71h7.99v13.2h-.89c.11-3,.71-5.55,1.8-7.66,1.09-2.11,2.58-3.71,4.47-4.8,1.89-1.09,4.05-1.64,6.49-1.64,2.11,0,4.01.38,5.71,1.14,1.7.76,3.16,1.83,4.38,3.22s2.15,3.02,2.8,4.91c.65,1.89.97,3.96.97,6.21v1.33c0,2.26-.3,4.34-.89,6.24-.59,1.91-1.48,3.57-2.66,4.99-1.18,1.42-2.63,2.52-4.35,3.3-1.72.78-3.69,1.16-5.91,1.16-2.37,0-4.46-.47-6.27-1.41-1.81-.94-3.25-2.37-4.3-4.27-1.05-1.9-1.62-4.3-1.69-7.18l2.44,3v19.97h-10.09Zm16.86-18.42c1.33,0,2.5-.34,3.52-1.03,1.02-.68,1.81-1.64,2.38-2.86.57-1.22.86-2.61.86-4.16s-.29-2.97-.86-4.13-1.36-2.07-2.36-2.72c-1-.65-2.18-.97-3.55-.97-1.22,0-2.36.28-3.41.83-1.05.55-1.91,1.37-2.58,2.44-.67,1.07-1,2.37-1,3.88v1.89c0,1.44.35,2.67,1.05,3.69.7,1.02,1.59,1.79,2.66,2.33,1.07.54,2.16.8,3.27.8Z"/>
    <path class="cls-1" d="m274.82,325.81v-7.32h13.98v7.32h-13.98Zm8.04-9.76c-1.85,0-3.21-.47-4.08-1.41-.87-.94-1.3-2.15-1.3-3.63s.43-2.69,1.3-3.63c.87-.94,2.21-1.42,4.02-1.42s3.2.47,4.05,1.42c.85.94,1.28,2.15,1.28,3.63s-.43,2.69-1.28,3.63c-.85.94-2.18,1.41-3.99,1.41Zm-4.16,33.06v-30.62h10.09v30.62h-10.09Z"/>
    <path class="cls-5" d="m296.23,349.11v-30.62h7.99v13.31h-.11c0-4.29.9-7.65,2.69-10.09,1.79-2.44,4.37-3.66,7.74-3.66h1.22v8.65h-2.33c-2.26,0-4,.61-5.24,1.83-1.24,1.22-1.86,2.98-1.86,5.27v15.31h-10.09Z"/>
    <path class="cls-5" d="m334.01,350.21c-2.59,0-4.88-.44-6.88-1.33s-3.68-2.09-5.05-3.61c-1.37-1.52-2.41-3.22-3.13-5.1-.72-1.89-1.08-3.83-1.08-5.82v-1.11c0-2.07.36-4.06,1.08-5.96.72-1.9,1.76-3.6,3.11-5.08,1.35-1.48,3-2.65,4.96-3.52,1.96-.87,4.18-1.3,6.66-1.3,3.29,0,6.08.74,8.38,2.22,2.29,1.48,4.05,3.43,5.27,5.85,1.22,2.42,1.83,5.06,1.83,7.9v3.22h-27.07v-5.44h21.25l-3.5,2.44c0-1.74-.23-3.21-.69-4.41-.46-1.2-1.15-2.12-2.05-2.75s-2.04-.94-3.41-.94-2.49.3-3.47.92c-.98.61-1.73,1.54-2.25,2.77-.52,1.24-.78,2.8-.78,4.69,0,1.7.24,3.17.72,4.41.48,1.24,1.22,2.19,2.22,2.86,1,.67,2.29,1,3.88,1,1.41,0,2.56-.24,3.47-.72s1.54-1.13,1.91-1.94h9.21c-.44,2.07-1.32,3.92-2.63,5.55-1.31,1.63-2.98,2.9-4.99,3.83-2.02.92-4.34,1.39-6.96,1.39Z"/>
  </g>
  <g class="cls-3">
    <path class="cls-2" d="m93.03,396.27c-2.04,0-3.85-.34-5.42-1.02-1.58-.68-2.9-1.61-3.96-2.8-1.07-1.19-1.88-2.56-2.43-4.11-.56-1.55-.83-3.19-.83-4.91v-.61c0-1.59.27-3.13.8-4.62.53-1.5,1.31-2.84,2.33-4.05,1.02-1.2,2.29-2.15,3.81-2.86,1.52-.7,3.24-1.05,5.17-1.05s3.81.38,5.37,1.14c1.56.76,2.83,1.82,3.79,3.18.96,1.36,1.52,2.94,1.68,4.73h-2.62c-.18-1.45-.66-2.67-1.45-3.67s-1.76-1.75-2.94-2.24c-1.18-.5-2.46-.75-3.84-.75s-2.77.26-3.94.78c-1.18.52-2.18,1.26-2.99,2.21-.82.95-1.45,2.07-1.89,3.35-.44,1.28-.66,2.68-.66,4.2,0,1.61.23,3.08.68,4.4.45,1.33,1.11,2.46,1.97,3.42.86.95,1.91,1.69,3.15,2.21,1.24.52,2.65.78,4.23.78,1.95,0,3.67-.38,5.15-1.14,1.48-.76,2.63-1.76,3.45-3.01l-1.02,3.2v-7.34h2.45v6.19c-1.07,1.38-2.45,2.46-4.15,3.25-1.7.78-3.66,1.17-5.88,1.17Zm-.92-10.06v-2.18h13.16v2.18h-13.16Z"/>
    <path class="cls-2" d="m109.88,395.69v-24.82h2.58v24.82h-2.58Zm1.9,0v-2.35h11.66v2.35h-11.66Z"/>
    <path class="cls-2" d="m137.35,396.27c-2.15,0-4.02-.39-5.61-1.16-1.59-.77-2.9-1.79-3.94-3.06-1.04-1.27-1.83-2.65-2.35-4.15-.52-1.5-.78-2.96-.78-4.39v-.61c0-1.52.27-3.03.8-4.54.53-1.51,1.33-2.87,2.4-4.1s2.39-2.2,3.98-2.94c1.59-.74,3.42-1.1,5.51-1.1s3.95.37,5.53,1.1c1.58.74,2.9,1.72,3.96,2.94s1.86,2.59,2.4,4.1c.53,1.51.8,3.02.8,4.54v.65c0,1.43-.26,2.88-.77,4.37s-1.29,2.86-2.35,4.13-2.38,2.29-3.96,3.06c-1.59.77-3.46,1.16-5.61,1.16Zm0-2.38c1.59,0,3-.29,4.25-.87,1.25-.58,2.3-1.37,3.16-2.38s1.52-2.15,1.97-3.42.68-2.6.68-3.98-.23-2.81-.68-4.08c-.45-1.27-1.12-2.4-1.99-3.38-.87-.99-1.93-1.76-3.18-2.33-1.25-.57-2.65-.85-4.22-.85s-2.94.28-4.18.85c-1.25.57-2.31,1.34-3.18,2.33-.87.99-1.54,2.11-2.01,3.38-.46,1.27-.7,2.63-.7,4.08s.23,2.71.68,3.98c.45,1.27,1.11,2.41,1.97,3.42s1.92,1.8,3.18,2.38c1.26.58,2.67.87,4.23.87Z"/>
    <path class="cls-2" d="m155.38,395.79v-25.02h2.58v25.02h-2.58Zm1.94-12.04v-1.7h6.36c1.56,0,2.72-.42,3.47-1.28.75-.85,1.12-1.92,1.12-3.21s-.37-2.42-1.12-3.26-1.9-1.26-3.47-1.26h-6.36v-2.28h5.92c2.56,0,4.48.58,5.75,1.73,1.27,1.16,1.9,2.75,1.9,4.79v.41c0,1.43-.32,2.59-.95,3.49s-1.52,1.55-2.67,1.96-2.49.61-4.03.61h-5.92Zm0,12.04v-2.28h7.28c1.47,0,2.62-.42,3.45-1.28.83-.85,1.24-1.98,1.24-3.38s-.41-2.5-1.22-3.35c-.82-.85-1.97-1.28-3.47-1.28h-7.28v-1.7h6.9c1.5,0,2.82.21,3.98.63,1.16.42,2.06,1.08,2.72,1.99.66.91.99,2.1.99,3.57v.41c0,1.34-.28,2.51-.85,3.52s-1.42,1.79-2.55,2.33c-1.13.54-2.56.82-4.28.82h-6.9Z"/>
    <path class="cls-2" d="m174.64,395.69l9.15-24.82h4.62l9.45,24.82h-2.65l-8.81-23.19,1.39.71h-3.57l1.46-.71-8.47,23.19h-2.58Zm4.9-7.89l.85-2.35h11.53l.88,2.35h-13.26Z"/>
    <path class="cls-2" d="m202.1,395.69v-24.82h2.58v24.82h-2.58Zm1.9,0v-2.35h11.66v2.35h-11.66Z"/>
    <path class="cls-2" d="m228.34,395.69v-24.82h2.58v24.82h-2.58Zm1.97-22.47v-2.35h12.04v2.35h-12.04Zm0,11.02v-2.31h11.25v2.31h-11.25Zm0,11.46v-2.35h12.41v2.35h-12.41Z"/>
    <path class="cls-2" d="m247.5,395.83v-25.06h2.58v25.06h-2.58Zm1.9,0v-2.38h6.77c1.68,0,3.15-.27,4.4-.82s2.32-1.29,3.18-2.23c.86-.94,1.51-2.02,1.94-3.25.43-1.22.65-2.53.65-3.91s-.22-2.75-.66-3.98c-.44-1.22-1.09-2.3-1.96-3.23-.86-.93-1.92-1.64-3.18-2.14-1.26-.5-2.71-.75-4.37-.75h-6.77v-2.38h6.49c2.22,0,4.15.34,5.78,1.02,1.63.68,2.99,1.6,4.08,2.77,1.09,1.17,1.89,2.48,2.41,3.93.52,1.45.78,2.92.78,4.42v.65c0,1.47-.26,2.94-.78,4.39-.52,1.45-1.31,2.77-2.38,3.96s-2.42,2.14-4.06,2.86c-1.64.71-3.59,1.07-5.83,1.07h-6.49Z"/>
    <path class="cls-2" d="m283.82,396.27c-2.27,0-4.15-.43-5.64-1.29s-2.62-2.07-3.37-3.62c-.75-1.55-1.12-3.34-1.12-5.36v-15.13h2.58v15.44c0,1.52.28,2.84.83,3.98.55,1.13,1.39,2.02,2.52,2.65s2.52.95,4.2.95,3.04-.31,4.15-.94c1.11-.62,1.95-1.51,2.52-2.65.57-1.14.85-2.48.85-4v-15.44h2.58v15.13c0,2.02-.37,3.8-1.12,5.36s-1.86,2.76-3.35,3.62c-1.49.86-3.36,1.29-5.63,1.29Z"/>
    <path class="cls-2" d="m311.36,396.27c-2.22,0-4.12-.39-5.7-1.17-1.58-.78-2.86-1.81-3.84-3.08s-1.71-2.65-2.16-4.13-.68-2.93-.68-4.33v-.65c0-1.52.23-3.03.7-4.54.46-1.51,1.19-2.87,2.18-4.1.99-1.22,2.25-2.2,3.79-2.94,1.54-.74,3.37-1.1,5.47-1.1s3.97.37,5.53,1.12c1.55.75,2.79,1.8,3.72,3.14.93,1.35,1.5,2.94,1.7,4.78h-2.62c-.18-1.47-.66-2.7-1.43-3.69-.77-.99-1.75-1.73-2.94-2.23-1.19-.5-2.51-.75-3.96-.75-1.56,0-2.94.28-4.13.83s-2.18,1.33-2.97,2.31c-.79.99-1.39,2.12-1.8,3.4-.41,1.28-.61,2.65-.61,4.1s.2,2.71.59,3.98,1,2.41,1.82,3.42c.82,1.01,1.84,1.8,3.06,2.38s2.65.87,4.28.87c2.27,0,4.17-.57,5.71-1.72,1.54-1.14,2.49-2.79,2.86-4.95h2.62c-.25,1.7-.84,3.24-1.77,4.61-.93,1.37-2.18,2.45-3.76,3.25-1.58.79-3.46,1.19-5.66,1.19Z"/>
    <path class="cls-2" d="m324.24,395.69l9.15-24.82h4.62l9.45,24.82h-2.65l-8.81-23.19,1.39.71h-3.57l1.46-.71-8.47,23.19h-2.58Zm4.9-7.89l.85-2.35h11.53l.88,2.35h-13.26Z"/>
    <path class="cls-2" d="m346.28,373.22v-2.35h18.09v2.35h-18.09Zm7.75,22.47v-23.12h2.58v23.12h-2.58Z"/>
    <path class="cls-2" d="m368.55,395.69v-24.82h2.58v24.82h-2.58Z"/>
    <path class="cls-2" d="m389.24,396.27c-2.15,0-4.02-.39-5.61-1.16-1.59-.77-2.9-1.79-3.94-3.06-1.04-1.27-1.83-2.65-2.35-4.15-.52-1.5-.78-2.96-.78-4.39v-.61c0-1.52.27-3.03.8-4.54.53-1.51,1.33-2.87,2.4-4.1s2.39-2.2,3.98-2.94c1.59-.74,3.42-1.1,5.51-1.1s3.95.37,5.53,1.1c1.58.74,2.9,1.72,3.96,2.94s1.86,2.59,2.4,4.1c.53,1.51.8,3.02.8,4.54v.65c0,1.43-.26,2.88-.77,4.37s-1.29,2.86-2.35,4.13-2.38,2.29-3.96,3.06c-1.59.77-3.46,1.16-5.61,1.16Zm0-2.38c1.59,0,3-.29,4.25-.87,1.25-.58,2.3-1.37,3.16-2.38s1.52-2.15,1.97-3.42.68-2.6.68-3.98-.23-2.81-.68-4.08c-.45-1.27-1.12-2.4-1.99-3.38-.87-.99-1.93-1.76-3.18-2.33-1.25-.57-2.65-.85-4.22-.85s-2.94.28-4.18.85c-1.25.57-2.31,1.34-3.18,2.33-.87.99-1.54,2.11-2.01,3.38-.46,1.27-.7,2.63-.7,4.08s.23,2.71.68,3.98c.45,1.27,1.11,2.41,1.97,3.42s1.92,1.8,3.18,2.38c1.26.58,2.67.87,4.23.87Z"/>
    <path class="cls-2" d="m407.26,395.69v-24.82h4.32l13.6,22.47h1.09l-.68.54v-23.02h2.48v24.82h-4.35l-13.6-22.47h-1.09l.68-.54v23.02h-2.45Z"/>
  </g>
  <g>
    <polygon class="cls-4" points="54.43 271.03 455.83 113.34 269.47 228.03 54.43 271.03"/>
    <polygon class="cls-1" points="455.83 113.34 355.48 299.7 269.47 228.03 455.83 113.34"/>
    <polygon class="cls-6" points="265.74 228.77 455.83 113.34 272.17 230.28 265.74 228.77"/>
  </g>
</svg>